<svg width="691" height="309" viewBox="0 0 691 309" fill="none" xmlns="http://www.w3.org/2000/svg">
<rect width="691" height="309" fill="#ABACA6"/>
<path d="M322.32 46.176H309.904V50.208H340.304V46.176H327.056V40.224H342.16V36.192H327.056V30.432H322.32V36.192H307.856V40.224H322.32V46.176ZM311.888 58.72H338V66.08H342.416V54.816H307.6V66.08H311.888V58.72ZM304.336 32.672H287.76V36.512H304.336V32.672ZM306.256 41.056H284.688V44.96H306.256V41.056ZM300.56 70.624V81.312H291.344V70.624H300.56ZM304.592 66.72H287.312V88.16H291.344V85.152H304.592V66.72ZM287.376 61.984H304.592V58.144H287.376V61.984ZM287.376 53.472H304.592V49.696H287.376V53.472ZM317.008 62.944C316.496 74.912 315.024 81.568 304.784 85.216C305.744 86.112 307.024 87.904 307.536 88.928C318.8 84.512 320.912 76.512 321.488 62.944H317.008ZM333.904 83.872C332.56 83.872 332.368 83.68 332.368 82.08V62.944H327.952V82.08C327.952 86.752 328.976 88.16 333.328 88.16H338.64C342.416 88.16 343.568 85.92 343.888 77.344C342.736 76.96 340.816 76.256 339.984 75.488C339.792 82.848 339.536 83.872 338.128 83.872H333.904ZM394 72.544V76.448H362.512V72.544H394ZM362.512 83.616V79.52H394V83.616H362.512ZM357.904 89.056H362.512V86.944H394V88.928H398.736V69.28H357.904V89.056ZM380.112 45.216H393.744V48.992H380.112V45.216ZM380.112 38.048H393.744V41.632H380.112V38.048ZM380.112 62.752V58.976H401.936V55.712H380.112V52.192H398.416V45.216H406.224V41.632H398.416V34.848H380.112V30.368H375.44V34.848H356.56V38.048H375.44V41.632H349.84V45.216H375.44V48.992H355.856V52.192H375.44V55.712H354.064V58.976H375.44V62.752H349.712V66.272H406.288V62.752H380.112Z" fill="white"/>
<path d="M304.744 101.64L302.848 102.432C303.976 105.024 305.248 107.832 306.352 109.824C303.76 111.6 302.2 113.544 302.2 116.04C302.2 119.64 305.44 120.984 309.952 120.984C312.952 120.984 315.736 120.72 317.536 120.384L317.56 118.248C315.688 118.728 312.496 119.064 309.88 119.064C306.088 119.064 304.192 117.816 304.192 115.824C304.192 114 305.536 112.416 307.768 110.976C310.096 109.416 312.784 108.168 314.416 107.304C315.112 106.944 315.712 106.632 316.24 106.32L315.28 104.568C314.776 104.976 314.248 105.288 313.576 105.696C312.256 106.44 310.072 107.496 307.96 108.768C306.928 106.872 305.704 104.28 304.744 101.64ZM316.648 101.4L315.352 101.952C316.024 102.864 316.84 104.304 317.32 105.288L318.616 104.712C318.112 103.728 317.248 102.264 316.648 101.4ZM319.288 100.44L318.016 100.968C318.712 101.88 319.504 103.248 320.032 104.28L321.304 103.704C320.848 102.816 319.936 101.304 319.288 100.44ZM338.169 102.288L336.393 100.704C336.105 101.16 335.505 101.832 335.025 102.312C333.393 103.968 329.745 106.848 327.945 108.36C325.785 110.184 325.497 111.216 327.777 113.112C330.009 114.96 333.657 118.08 335.337 119.808C335.937 120.384 336.489 120.984 336.993 121.56L338.697 119.976C336.153 117.432 331.905 114 329.721 112.224C328.185 110.928 328.209 110.544 329.649 109.32C331.425 107.832 334.881 105.096 336.513 103.656C336.921 103.32 337.665 102.696 338.169 102.288ZM353.433 101.304L351.009 101.28C351.153 101.976 351.201 102.84 351.201 103.728C351.201 106.248 350.961 112.32 350.961 115.872C350.961 119.784 353.337 121.224 356.793 121.224C362.073 121.224 365.169 118.2 366.825 115.92L365.457 114.288C363.729 116.784 361.257 119.256 356.865 119.256C354.585 119.256 352.929 118.32 352.929 115.68C352.929 112.104 353.097 106.44 353.217 103.728C353.241 102.936 353.313 102.096 353.433 101.304ZM375.561 118.248C375.561 117.144 376.857 116.52 378.777 116.52C379.353 116.52 379.905 116.568 380.457 116.688C380.457 117.192 380.481 117.648 380.481 118.008C380.481 119.16 379.785 119.88 378.489 119.88C376.641 119.88 375.561 119.16 375.561 118.248ZM382.161 105.096H380.073C380.169 105.432 380.241 106.368 380.241 107.088V110.904C380.241 112.08 380.313 113.664 380.385 115.128C379.929 115.056 379.449 115.032 378.969 115.032C375.681 115.032 373.857 116.304 373.857 118.32C373.857 120.432 375.849 121.536 378.681 121.536C381.321 121.536 382.305 120.144 382.305 118.584C382.305 118.224 382.281 117.744 382.257 117.216C384.273 117.984 386.025 119.304 387.273 120.576L388.281 118.896C386.889 117.624 384.777 116.184 382.185 115.488C382.113 113.904 382.017 112.176 382.017 111.024V110.4C383.649 110.376 386.337 110.232 388.017 110.064L387.993 108.384C386.265 108.6 383.625 108.744 382.017 108.768V107.064C382.017 106.416 382.089 105.456 382.161 105.096Z" fill="white"/>
<path d="M435.214 45.724H431.686V46.606H440.452V45.724H436.528V44.86H440.938V43.942H436.528V42.952H435.214V43.942H431.074V44.86H435.214V45.724ZM432.298 48.118H434.44C434.314 48.748 433.828 48.964 432.388 49.072C432.55 49.216 432.73 49.522 432.784 49.72C434.566 49.522 435.16 49.09 435.286 48.118H436.492V48.514C436.492 49.324 436.762 49.486 437.788 49.486H439.462H439.66V50.116H432.298V48.118ZM439.66 48.766C439.624 48.82 439.588 48.82 439.3 48.82H437.86C437.482 48.82 437.41 48.784 437.41 48.514V48.118H439.66V48.766ZM431.2 50.89H440.812V47.326H431.2V50.89ZM430.03 43.564H425.602V44.644H430.03V43.564ZM430.534 45.922H424.756V47.02H430.534V45.922ZM428.95 54.238V57.244H426.556V54.238H428.95ZM430.066 53.14H425.476V59.17H426.556V58.324H430.066V53.14ZM425.494 51.808H430.066V50.728H425.494V51.808ZM425.494 49.414H430.066V48.352H425.494V49.414ZM432.928 55.192H439.084V56.002H432.928V55.192ZM432.928 53.77H439.084V54.544H432.928V53.77ZM432.928 52.348H439.084V53.104H432.928V52.348ZM440.326 56.812V51.538H431.722V56.812H433.882C433.09 57.442 431.506 58.162 430.156 58.54C430.444 58.756 430.822 59.152 431.02 59.386C432.352 58.972 433.99 58.198 435.016 57.442L433.936 56.812H437.554L436.798 57.46C438.058 58.09 439.48 58.864 440.308 59.386L441.37 58.648C440.488 58.144 439.03 57.406 437.734 56.812H440.326Z" fill="white"/>
<path d="M427.574 79.192H437.294V83.458H438.788V77.986H427.574V79.192ZM434 75.232V73.306H438.896V72.118H429.266V69.022H438.752V67.834H427.79V73.306H432.524V75.232H425.954V76.42H440.57V75.232H434ZM448.165 68.572H446.689V71.47C446.689 74.458 444.853 77.572 442.513 78.742L443.413 79.912C445.231 78.94 446.725 76.906 447.427 74.512C448.165 76.78 449.641 78.706 451.477 79.624L452.341 78.454C450.001 77.338 448.165 74.404 448.165 71.47V68.572ZM454.339 67.186V72.658H450.595V73.864H454.339V83.35H455.815V67.186H454.339Z" fill="white"/>
<path d="M315.98 275V257.938H321.559C323.41 257.938 324.801 258.32 325.73 259.086C326.668 259.852 327.137 260.984 327.137 262.484C327.137 263.281 326.91 263.988 326.457 264.605C326.004 265.215 325.387 265.688 324.605 266.023C325.527 266.281 326.254 266.773 326.785 267.5C327.324 268.219 327.594 269.078 327.594 270.078C327.594 271.609 327.098 272.812 326.105 273.688C325.113 274.562 323.711 275 321.898 275H315.98ZM318.23 267.02V273.16H321.945C322.992 273.16 323.816 272.891 324.418 272.352C325.027 271.805 325.332 271.055 325.332 270.102C325.332 268.047 324.215 267.02 321.98 267.02H318.23ZM318.23 265.215H321.629C322.613 265.215 323.398 264.969 323.984 264.477C324.578 263.984 324.875 263.316 324.875 262.473C324.875 261.535 324.602 260.855 324.055 260.434C323.508 260.004 322.676 259.789 321.559 259.789H318.23V265.215ZM344.059 267.02C344.059 268.691 343.777 270.152 343.215 271.402C342.652 272.645 341.855 273.594 340.824 274.25C339.793 274.906 338.59 275.234 337.215 275.234C335.871 275.234 334.68 274.906 333.641 274.25C332.602 273.586 331.793 272.645 331.215 271.426C330.645 270.199 330.352 268.781 330.336 267.172V265.941C330.336 264.301 330.621 262.852 331.191 261.594C331.762 260.336 332.566 259.375 333.605 258.711C334.652 258.039 335.848 257.703 337.191 257.703C338.559 257.703 339.762 258.035 340.801 258.699C341.848 259.355 342.652 260.312 343.215 261.57C343.777 262.82 344.059 264.277 344.059 265.941V267.02ZM341.82 265.918C341.82 263.895 341.414 262.344 340.602 261.266C339.789 260.18 338.652 259.637 337.191 259.637C335.77 259.637 334.648 260.18 333.828 261.266C333.016 262.344 332.598 263.844 332.574 265.766V267.02C332.574 268.98 332.984 270.523 333.805 271.648C334.633 272.766 335.77 273.324 337.215 273.324C338.668 273.324 339.793 272.797 340.59 271.742C341.387 270.68 341.797 269.16 341.82 267.184V265.918ZM360.559 267.02C360.559 268.691 360.277 270.152 359.715 271.402C359.152 272.645 358.355 273.594 357.324 274.25C356.293 274.906 355.09 275.234 353.715 275.234C352.371 275.234 351.18 274.906 350.141 274.25C349.102 273.586 348.293 272.645 347.715 271.426C347.145 270.199 346.852 268.781 346.836 267.172V265.941C346.836 264.301 347.121 262.852 347.691 261.594C348.262 260.336 349.066 259.375 350.105 258.711C351.152 258.039 352.348 257.703 353.691 257.703C355.059 257.703 356.262 258.035 357.301 258.699C358.348 259.355 359.152 260.312 359.715 261.57C360.277 262.82 360.559 264.277 360.559 265.941V267.02ZM358.32 265.918C358.32 263.895 357.914 262.344 357.102 261.266C356.289 260.18 355.152 259.637 353.691 259.637C352.27 259.637 351.148 260.18 350.328 261.266C349.516 262.344 349.098 263.844 349.074 265.766V267.02C349.074 268.98 349.484 270.523 350.305 271.648C351.133 272.766 352.27 273.324 353.715 273.324C355.168 273.324 356.293 272.797 357.09 271.742C357.887 270.68 358.297 269.16 358.32 267.184V265.918ZM368.27 267.066L366.184 269.234V275H363.934V257.938H366.184V266.375L373.766 257.938H376.484L369.77 265.473L377.012 275H374.316L368.27 267.066Z" fill="white"/>
<path d="M139.578 264H137.693V257.428H130.525V264H128.65V249.781H130.525V255.895H137.693V249.781H139.578V264ZM153.846 257.35C153.846 258.743 153.611 259.96 153.143 261.002C152.674 262.037 152.01 262.828 151.15 263.375C150.291 263.922 149.288 264.195 148.143 264.195C147.023 264.195 146.03 263.922 145.164 263.375C144.298 262.822 143.624 262.037 143.143 261.021C142.667 259.999 142.423 258.818 142.41 257.477V256.451C142.41 255.084 142.648 253.876 143.123 252.828C143.598 251.78 144.269 250.979 145.135 250.426C146.007 249.866 147.003 249.586 148.123 249.586C149.262 249.586 150.265 249.863 151.131 250.416C152.003 250.963 152.674 251.76 153.143 252.809C153.611 253.85 153.846 255.064 153.846 256.451V257.35ZM151.98 256.432C151.98 254.745 151.642 253.453 150.965 252.555C150.288 251.65 149.34 251.197 148.123 251.197C146.938 251.197 146.004 251.65 145.32 252.555C144.643 253.453 144.295 254.703 144.275 256.305V257.35C144.275 258.984 144.617 260.27 145.301 261.207C145.991 262.138 146.938 262.604 148.143 262.604C149.354 262.604 150.291 262.164 150.955 261.285C151.619 260.4 151.961 259.133 151.98 257.486V256.432ZM156.658 264V249.781H161.307C162.85 249.781 164.008 250.1 164.783 250.738C165.564 251.376 165.955 252.32 165.955 253.57C165.955 254.234 165.766 254.824 165.389 255.338C165.011 255.846 164.497 256.24 163.846 256.52C164.614 256.734 165.219 257.145 165.662 257.75C166.111 258.349 166.336 259.065 166.336 259.898C166.336 261.174 165.923 262.177 165.096 262.906C164.269 263.635 163.1 264 161.59 264H156.658ZM158.533 257.35V262.467H161.629C162.501 262.467 163.188 262.242 163.689 261.793C164.197 261.337 164.451 260.712 164.451 259.918C164.451 258.206 163.52 257.35 161.658 257.35H158.533ZM158.533 255.846H161.365C162.186 255.846 162.84 255.641 163.328 255.23C163.823 254.82 164.07 254.264 164.07 253.561C164.07 252.779 163.842 252.213 163.387 251.861C162.931 251.503 162.238 251.324 161.307 251.324H158.533V255.846ZM169.119 264V249.781H173.768C175.311 249.781 176.469 250.1 177.244 250.738C178.025 251.376 178.416 252.32 178.416 253.57C178.416 254.234 178.227 254.824 177.85 255.338C177.472 255.846 176.958 256.24 176.307 256.52C177.075 256.734 177.68 257.145 178.123 257.75C178.572 258.349 178.797 259.065 178.797 259.898C178.797 261.174 178.383 262.177 177.557 262.906C176.73 263.635 175.561 264 174.051 264H169.119ZM170.994 257.35V262.467H174.09C174.962 262.467 175.649 262.242 176.15 261.793C176.658 261.337 176.912 260.712 176.912 259.918C176.912 258.206 175.981 257.35 174.119 257.35H170.994ZM170.994 255.846H173.826C174.646 255.846 175.301 255.641 175.789 255.23C176.284 254.82 176.531 254.264 176.531 253.561C176.531 252.779 176.303 252.213 175.848 251.861C175.392 251.503 174.699 251.324 173.768 251.324H170.994V255.846ZM185.369 256.92L189.08 249.781H191.209L186.307 258.697V264H184.432V258.697L179.529 249.781H181.678L185.369 256.92Z" fill="white"/>
<path d="M528.109 256.488C527.934 257.992 527.377 259.154 526.439 259.975C525.508 260.788 524.268 261.195 522.719 261.195C521.039 261.195 519.691 260.593 518.676 259.389C517.667 258.184 517.162 256.573 517.162 254.555V253.188C517.162 251.866 517.396 250.704 517.865 249.701C518.34 248.699 519.011 247.93 519.877 247.396C520.743 246.856 521.745 246.586 522.885 246.586C524.395 246.586 525.606 247.009 526.518 247.855C527.429 248.695 527.96 249.861 528.109 251.352H526.225C526.062 250.219 525.707 249.398 525.16 248.891C524.62 248.383 523.861 248.129 522.885 248.129C521.687 248.129 520.746 248.572 520.062 249.457C519.385 250.342 519.047 251.602 519.047 253.236V254.613C519.047 256.156 519.369 257.383 520.014 258.295C520.658 259.206 521.56 259.662 522.719 259.662C523.76 259.662 524.558 259.428 525.111 258.959C525.671 258.484 526.042 257.66 526.225 256.488H528.109ZM541.615 254.35C541.615 255.743 541.381 256.96 540.912 258.002C540.443 259.037 539.779 259.828 538.92 260.375C538.061 260.922 537.058 261.195 535.912 261.195C534.792 261.195 533.799 260.922 532.934 260.375C532.068 259.822 531.394 259.037 530.912 258.021C530.437 256.999 530.193 255.818 530.18 254.477V253.451C530.18 252.084 530.417 250.876 530.893 249.828C531.368 248.78 532.038 247.979 532.904 247.426C533.777 246.866 534.773 246.586 535.893 246.586C537.032 246.586 538.035 246.863 538.9 247.416C539.773 247.963 540.443 248.76 540.912 249.809C541.381 250.85 541.615 252.064 541.615 253.451V254.35ZM539.75 253.432C539.75 251.745 539.411 250.453 538.734 249.555C538.057 248.65 537.11 248.197 535.893 248.197C534.708 248.197 533.773 248.65 533.09 249.555C532.413 250.453 532.064 251.703 532.045 253.305V254.35C532.045 255.984 532.387 257.27 533.07 258.207C533.76 259.138 534.708 259.604 535.912 259.604C537.123 259.604 538.061 259.164 538.725 258.285C539.389 257.4 539.73 256.133 539.75 254.486V253.432ZM552.27 254.721H546.303V261H544.428V246.781H553.236V248.324H546.303V253.188H552.27V254.721ZM563.324 254.721H557.357V261H555.482V246.781H564.291V248.324H557.357V253.188H563.324V254.721ZM574.574 254.428H568.412V259.467H575.57V261H566.537V246.781H575.473V248.324H568.412V252.895H574.574V254.428ZM585.941 254.428H579.779V259.467H586.938V261H577.904V246.781H586.84V248.324H579.779V252.895H585.941V254.428Z" fill="white"/>
<rect x="102" y="155" width="488" height="75" fill="#586E58"/>
<path d="M34 192.5L102.25 154.828L102.25 230.172L34 192.5Z" fill="#586E58"/>
<path d="M657 192.5L588.75 230.172V154.828L657 192.5Z" fill="#586E58"/>
<rect x="307" y="155" width="77" height="75" fill="#DFF68F"/>
<path d="M142.428 184.896H138.288V180.648H142.428V184.896ZM138.288 199.296V193.572H142.428V198.36L138.288 199.296ZM142.428 191.484H138.288V187.02H142.428V191.484ZM136.128 199.764C135.12 199.98 134.184 200.16 133.356 200.34L133.86 202.536C136.308 201.996 139.368 201.24 142.428 200.484V205.524H144.624V186.228H151.68C151.284 189.9 150.6 193.068 149.628 195.732C148.62 193.176 147.864 190.296 147.36 187.272L145.488 187.668C146.136 191.592 147.144 195.3 148.512 198.396C147.576 200.232 146.496 201.744 145.236 202.896C145.74 203.292 146.496 204.228 146.82 204.768C147.936 203.76 148.908 202.464 149.808 200.88C150.816 202.572 151.968 204.012 153.3 205.092C153.66 204.48 154.38 203.688 154.884 203.292C153.336 202.176 152.04 200.556 150.96 198.54C152.508 194.904 153.552 190.188 154.092 184.392L152.724 183.96L152.292 184.032H144.624V180.648H151.14V178.308H134.112V180.648H136.128V199.764ZM130.872 197.028H135.012V194.652H130.872V190.08H135.3V187.704H130.368V183.492H134.616V181.152H130.368V176.868H127.992V181.152H122.844V183.492H127.992V187.704H121.944V190.08H128.496V203.004C127.308 201.744 126.408 200.016 125.688 197.676C125.796 196.092 125.796 194.508 125.76 192.996L123.528 192.888C123.636 197.676 123.42 203.76 121.008 208.116C121.512 208.368 122.376 209.124 122.772 209.664C124.032 207.468 124.788 204.912 125.22 202.284C127.92 207.576 132.312 208.8 140.16 208.8H153.48C153.66 208.008 154.164 206.82 154.596 206.172C152.436 206.244 141.816 206.244 140.16 206.244C136.2 206.244 133.176 205.92 130.872 204.732V197.028ZM165.684 182.736V198.396H161.184V182.736H165.684ZM168.168 200.988V180.144H158.736V203.76H161.184V200.988H168.168ZM190.128 193.968V191.412H180.768V185.364H188.652V182.808H180.768V177.084H178.14V182.808H170.832V185.364H178.14V191.412H169.464V193.968H177.096C174.9 198.756 171.12 203.364 167.124 205.596C167.772 206.1 168.564 207.036 168.996 207.684C172.488 205.416 175.8 201.456 178.14 196.92V209.736H180.768V196.884C182.82 201.204 185.664 205.272 188.58 207.612C189.012 206.928 189.912 205.92 190.524 205.416C187.176 203.112 183.828 198.54 181.812 193.968H190.128Z" fill="white"/>
<path d="M528.8 200.124L525.74 201.204V192.132H528.764V189.756H525.74V181.764H529.196V179.352H519.764V181.764H523.364V189.756H520.088V192.132H523.364V202.032C521.852 202.536 520.448 203.04 519.296 203.364L519.944 205.848C522.644 204.84 526.028 203.616 529.304 202.392L528.8 200.124ZM540.68 184.428H535.352C535.424 182.088 535.424 179.604 535.424 177.084H533.12C533.12 179.604 533.12 182.088 533.048 184.428H529.736V186.84H533.048C532.76 195.84 531.752 203.508 527.792 208.116C528.404 208.476 529.268 209.268 529.664 209.772C533.948 204.624 535.028 196.416 535.352 186.84H538.304C537.908 200.232 537.548 204.876 536.792 205.956C536.504 206.424 536.216 206.532 535.82 206.496C535.244 206.496 534.236 206.496 533.084 206.388C533.48 207.072 533.696 208.08 533.732 208.836C534.884 208.872 536.072 208.908 536.828 208.764C537.692 208.656 538.304 208.368 538.88 207.504C539.924 206.064 540.248 201.06 540.68 185.688V184.428ZM544.496 203.256V183.492H549.032V203.256H544.496ZM542.228 181.08V208.8H544.496V205.668H549.032V208.512H551.372V181.08H542.228ZM572.396 182.34H566.312V184.752H572.396V190.404H566.636V192.816H572.396C572.396 194.544 572.324 196.236 572.072 197.856C569.84 198.648 567.716 199.404 565.952 200.016L565.808 198.432L562.028 199.404V191.7H565.556V189.288H562.028V181.98H566.06V179.568H555.656V181.98H559.616V189.288H556.16V191.7H559.616V200.052C557.96 200.448 556.448 200.844 555.224 201.096L555.764 203.616C558.284 202.932 561.38 202.104 564.476 201.204L565.052 203.076C566.96 202.356 569.156 201.42 571.424 200.52C570.524 203.4 568.724 205.992 565.34 208.044C565.916 208.476 566.852 209.34 567.248 209.88C573.944 205.776 574.952 199.548 574.952 192.564V176.976H572.396V182.34ZM588.452 198.828H581.432V192.816H587.48V190.404H581.432V184.752H587.876V182.34H581.432V176.976H578.804V209.7H581.432V201.276H588.452V198.828Z" fill="white"/>
<rect x="199" y="31" width="66" height="64" rx="3" fill="#ABACA6" stroke="white" stroke-width="6"/>
<path d="M227.324 41.0938V54.6289C227.315 56.5065 226.723 58.0423 225.547 59.2363C224.38 60.4303 222.794 61.1003 220.789 61.2461L220.092 61.2734C217.913 61.2734 216.177 60.6855 214.883 59.5098C213.589 58.334 212.932 56.7161 212.914 54.6562V41.0938H215.512V54.5742C215.512 56.0143 215.908 57.1354 216.701 57.9375C217.494 58.7305 218.624 59.127 220.092 59.127C221.577 59.127 222.712 58.7305 223.496 57.9375C224.289 57.1445 224.686 56.028 224.686 54.5879V41.0938H227.324ZM249.68 41.0938V54.6289C249.671 56.5065 249.079 58.0423 247.903 59.2363C246.736 60.4303 245.151 61.1003 243.145 61.2461L242.448 61.2734C240.27 61.2734 238.533 60.6855 237.239 59.5098C235.945 58.334 235.289 56.7161 235.27 54.6562V41.0938H237.868V54.5742C237.868 56.0143 238.264 57.1354 239.057 57.9375C239.85 58.7305 240.981 59.127 242.448 59.127C243.934 59.127 245.068 58.7305 245.852 57.9375C246.645 57.1445 247.042 56.028 247.042 54.5879V41.0938H249.68Z" fill="white"/>
<path d="M228.697 87H215.654V85.1816L222.545 77.5254C223.566 76.3678 224.268 75.429 224.65 74.709C225.042 73.9798 225.238 73.2279 225.238 72.4531C225.238 71.4141 224.924 70.5618 224.295 69.8965C223.666 69.2311 222.827 68.8984 221.779 68.8984C220.521 68.8984 219.542 69.2585 218.84 69.9785C218.147 70.6895 217.801 71.6829 217.801 72.959H215.271C215.271 71.127 215.859 69.6458 217.035 68.5156C218.22 67.3854 219.801 66.8203 221.779 66.8203C223.63 66.8203 225.092 67.3079 226.168 68.2832C227.243 69.2493 227.781 70.5391 227.781 72.1523C227.781 74.112 226.533 76.4453 224.035 79.1523L218.703 84.9355H228.697V87ZM245.503 67.0801V69.2266H245.038C243.069 69.263 241.501 69.8464 240.335 70.9766C239.168 72.1068 238.494 73.6973 238.311 75.748C239.36 74.5449 240.79 73.9434 242.604 73.9434C244.336 73.9434 245.717 74.554 246.747 75.7754C247.786 76.9967 248.305 78.5736 248.305 80.5059C248.305 82.5566 247.745 84.1973 246.624 85.4277C245.512 86.6582 244.017 87.2734 242.139 87.2734C240.235 87.2734 238.69 86.5443 237.505 85.0859C236.32 83.6185 235.727 81.7318 235.727 79.4258V78.4551C235.727 74.791 236.507 71.9928 238.065 70.0605C239.633 68.1191 241.962 67.1257 245.052 67.0801H245.503ZM242.18 76.0488C241.315 76.0488 240.517 76.3086 239.788 76.8281C239.059 77.3477 238.553 77.9993 238.27 78.7832V79.7129C238.27 81.3535 238.639 82.6751 239.378 83.6777C240.116 84.6803 241.037 85.1816 242.139 85.1816C243.279 85.1816 244.172 84.7624 244.819 83.9238C245.475 83.0853 245.804 81.987 245.804 80.6289C245.804 79.2617 245.471 78.1589 244.805 77.3203C244.149 76.4727 243.274 76.0488 242.18 76.0488Z" fill="white"/>
</svg>
