<svg width="691" height="309" viewBox="0 0 691 309" fill="none" xmlns="http://www.w3.org/2000/svg">
<rect width="691" height="309" fill="#ABACA6"/>
<path d="M301.2 71.776L295.76 73.696V57.568H301.136V53.344H295.76V39.136H301.904V34.848H285.136V39.136H291.536V53.344H285.712V57.568H291.536V75.168C288.848 76.064 286.352 76.96 284.304 77.536L285.456 81.952C290.256 80.16 296.272 77.984 302.096 75.808L301.2 71.776ZM322.32 43.872H312.848C312.976 39.712 312.976 35.296 312.976 30.816H308.88C308.88 35.296 308.88 39.712 308.752 43.872H302.864V48.16H308.752C308.24 64.16 306.448 77.792 299.408 85.984C300.496 86.624 302.032 88.032 302.736 88.928C310.352 79.776 312.272 65.184 312.848 48.16H318.096C317.392 71.968 316.752 80.224 315.408 82.144C314.896 82.976 314.384 83.168 313.68 83.104C312.656 83.104 310.864 83.104 308.816 82.912C309.52 84.128 309.904 85.92 309.968 87.264C312.016 87.328 314.128 87.392 315.472 87.136C317.008 86.944 318.096 86.432 319.12 84.896C320.976 82.336 321.552 73.44 322.32 46.112V43.872ZM329.104 77.344V42.208H337.168V77.344H329.104ZM325.072 37.92V87.2H329.104V81.632H337.168V86.688H341.328V37.92H325.072ZM378.704 40.16H367.888V44.448H378.704V54.496H368.464V58.784H378.704C378.704 61.856 378.576 64.864 378.128 67.744C374.16 69.152 370.384 70.496 367.248 71.584L366.992 68.768L360.272 70.496V56.8H366.544V52.512H360.272V39.52H367.44V35.232H348.944V39.52H355.984V52.512H349.84V56.8H355.984V71.648C353.04 72.352 350.352 73.056 348.176 73.504L349.136 77.984C353.616 76.768 359.12 75.296 364.624 73.696L365.648 77.024C369.04 75.744 372.944 74.08 376.976 72.48C375.376 77.6 372.176 82.208 366.16 85.856C367.184 86.624 368.848 88.16 369.552 89.12C381.456 81.824 383.248 70.752 383.248 58.336V30.624H378.704V40.16ZM407.248 69.472H394.768V58.784H405.52V54.496H394.768V44.448H406.224V40.16H394.768V30.624H390.096V88.8H394.768V73.824H407.248V69.472Z" fill="white"/>
<path d="M303.64 103.152V105.12C305.536 105.264 307.576 105.384 309.976 105.384C312.208 105.384 314.824 105.216 316.456 105.096V103.128C314.728 103.296 312.28 103.464 309.976 103.464C307.576 103.464 305.368 103.368 303.64 103.152ZM304.6 112.824L302.656 112.632C302.44 113.616 302.152 114.744 302.152 115.968C302.152 118.992 304.984 120.6 309.856 120.6C313.264 120.6 316.312 120.24 318.04 119.76L318.016 117.696C316.216 118.296 313.12 118.656 309.808 118.656C305.968 118.656 304.096 117.384 304.096 115.56C304.096 114.672 304.288 113.784 304.6 112.824ZM324.448 109.608V111.96C325.192 111.888 326.464 111.84 327.784 111.84H340.96C342.04 111.84 343.048 111.936 343.528 111.96V109.608C343 109.656 342.136 109.728 340.936 109.728H327.784C326.44 109.728 325.168 109.656 324.448 109.608ZM363.616 102.264L361.72 102.792C361.888 103.416 362.08 103.992 362.272 104.568C363.832 113.472 361.792 119.256 356.272 119.256C353.824 119.256 351.592 118.104 351.592 114.72C351.592 109.8 355.24 105.576 356.776 104.472C357.112 104.304 357.736 104.136 358.048 104.04L357.496 102.336C356.08 102.864 352.024 103.44 349.888 103.536C349.456 103.56 348.952 103.56 348.616 103.536L348.76 105.552C349.24 105.48 349.648 105.408 350.104 105.36C350.968 105.24 352.96 105 354.184 104.808C352.048 107.184 349.696 110.64 349.696 115.128C349.696 119.088 352.456 121.2 356.224 121.2C362.872 121.2 364.696 115.44 364.192 109.392C365.104 111.192 366.16 112.752 367.456 114.12L368.704 112.416C365.152 109.248 364.12 105.168 363.616 102.264ZM372.448 109.608V111.96C373.192 111.888 374.464 111.84 375.784 111.84H388.96C390.04 111.84 391.048 111.936 391.528 111.96V109.608C391 109.656 390.136 109.728 388.936 109.728H375.784C374.44 109.728 373.168 109.656 372.448 109.608Z" fill="white"/>
<path d="M428.32 45.364V53.77H426.502V45.364H428.32ZM429.4 54.886V44.266H425.422V56.614H426.502V54.886H429.4ZM432.73 46.552C432.748 45.418 432.766 44.23 432.766 43.006H431.596C431.596 44.248 431.596 45.436 431.578 46.552H430.048V47.758H431.542C431.416 52.492 430.894 56.29 428.626 58.576C428.914 58.756 429.346 59.152 429.562 59.44C432.01 56.884 432.568 52.834 432.712 47.758H434.26C434.062 54.652 433.846 57.046 433.45 57.586C433.288 57.838 433.162 57.874 432.928 57.874C432.658 57.874 432.136 57.874 431.56 57.82C431.74 58.162 431.866 58.666 431.866 59.026C432.46 59.08 433.054 59.062 433.45 59.026C433.882 58.954 434.188 58.81 434.476 58.378C435.016 57.604 435.214 55.102 435.448 47.182C435.466 47.038 435.466 46.552 435.466 46.552H432.73ZM437.266 56.002V46.246H439.498V56.002H437.266ZM436.168 45.04V58.72H437.266V57.208H439.498V58.576H440.65V45.04H436.168ZM446.824 45.85V52.888H444.574V45.85H446.824ZM448.03 54.112V44.608H443.386V55.696H444.574V54.112H448.03ZM453.484 52.51L452.746 52.762C452.782 52.204 452.8 51.646 452.8 51.07V43.096H451.522V45.976H448.516V47.218H451.522V49.702H448.642V50.926H451.522V51.052C451.522 51.772 451.504 52.492 451.414 53.212C450.046 53.662 448.75 54.076 447.796 54.346L448.318 55.552C449.182 55.246 450.154 54.886 451.162 54.49C450.766 56.074 449.884 57.496 448.066 58.576C448.39 58.774 448.84 59.188 449.056 59.44C451.342 58.054 452.26 56.11 452.62 53.932L453.664 53.518L453.484 52.51ZM459.226 53.464H455.698V50.926H458.83V49.702H455.698V47.218H459.046V45.976H455.698V43.06H454.402V59.35H455.698V54.706H459.226V53.464Z" fill="white"/>
<path d="M426.836 68.86V70.066H432.632C432.56 71.056 432.416 72.01 432.11 72.91L426.008 73.306L426.278 74.584L431.66 74.08C430.67 76.222 428.888 78.076 425.954 79.516L426.782 80.686C432.452 77.806 434.09 73.54 434.09 68.86H426.836ZM437.762 67.204V73.666H434.036V74.872H437.762V83.332H439.238V67.204H437.762ZM446.131 70.12H448.831V77.968C447.913 78.004 447.013 78.04 446.131 78.058V70.12ZM450.271 70.12H452.053V68.932H442.909V70.12H444.709V78.076C443.935 78.094 443.197 78.094 442.513 78.094L442.675 79.336C445.609 79.318 449.497 79.282 452.971 78.724L452.881 77.644C452.035 77.752 451.153 77.842 450.271 77.878V70.12ZM454.285 67.204V83.332H455.761V67.204H454.285Z" fill="white"/>
<path d="M317.531 273.586C317.32 275.391 316.652 276.785 315.527 277.77C314.41 278.746 312.922 279.234 311.062 279.234C309.047 279.234 307.43 278.512 306.211 277.066C305 275.621 304.395 273.688 304.395 271.266V269.625C304.395 268.039 304.676 266.645 305.238 265.441C305.809 264.238 306.613 263.316 307.652 262.676C308.691 262.027 309.895 261.703 311.262 261.703C313.074 261.703 314.527 262.211 315.621 263.227C316.715 264.234 317.352 265.633 317.531 267.422H315.27C315.074 266.062 314.648 265.078 313.992 264.469C313.344 263.859 312.434 263.555 311.262 263.555C309.824 263.555 308.695 264.086 307.875 265.148C307.062 266.211 306.656 267.723 306.656 269.684V271.336C306.656 273.188 307.043 274.66 307.816 275.754C308.59 276.848 309.672 277.395 311.062 277.395C312.312 277.395 313.27 277.113 313.934 276.551C314.605 275.98 315.051 274.992 315.27 273.586H317.531ZM333.738 271.02C333.738 272.691 333.457 274.152 332.895 275.402C332.332 276.645 331.535 277.594 330.504 278.25C329.473 278.906 328.27 279.234 326.895 279.234C325.551 279.234 324.359 278.906 323.32 278.25C322.281 277.586 321.473 276.645 320.895 275.426C320.324 274.199 320.031 272.781 320.016 271.172V269.941C320.016 268.301 320.301 266.852 320.871 265.594C321.441 264.336 322.246 263.375 323.285 262.711C324.332 262.039 325.527 261.703 326.871 261.703C328.238 261.703 329.441 262.035 330.48 262.699C331.527 263.355 332.332 264.312 332.895 265.57C333.457 266.82 333.738 268.277 333.738 269.941V271.02ZM331.5 269.918C331.5 267.895 331.094 266.344 330.281 265.266C329.469 264.18 328.332 263.637 326.871 263.637C325.449 263.637 324.328 264.18 323.508 265.266C322.695 266.344 322.277 267.844 322.254 269.766V271.02C322.254 272.98 322.664 274.523 323.484 275.648C324.312 276.766 325.449 277.324 326.895 277.324C328.348 277.324 329.473 276.797 330.27 275.742C331.066 274.68 331.477 273.16 331.5 271.184V269.918ZM346.523 271.465H339.363V279H337.113V261.938H347.684V263.789H339.363V269.625H346.523V271.465ZM359.789 271.465H352.629V279H350.379V261.938H360.949V263.789H352.629V269.625H359.789V271.465ZM373.289 271.113H365.895V277.16H374.484V279H363.645V261.938H374.367V263.789H365.895V269.273H373.289V271.113ZM386.93 271.113H379.535V277.16H388.125V279H377.285V261.938H388.008V263.789H379.535V269.273H386.93V271.113Z" fill="white"/>
<path d="M128.65 264V249.781H133.299C134.842 249.781 136.001 250.1 136.775 250.738C137.557 251.376 137.947 252.32 137.947 253.57C137.947 254.234 137.758 254.824 137.381 255.338C137.003 255.846 136.489 256.24 135.838 256.52C136.606 256.734 137.212 257.145 137.654 257.75C138.104 258.349 138.328 259.065 138.328 259.898C138.328 261.174 137.915 262.177 137.088 262.906C136.261 263.635 135.092 264 133.582 264H128.65ZM130.525 257.35V262.467H133.621C134.493 262.467 135.18 262.242 135.682 261.793C136.189 261.337 136.443 260.712 136.443 259.918C136.443 258.206 135.512 257.35 133.65 257.35H130.525ZM130.525 255.846H133.357C134.178 255.846 134.832 255.641 135.32 255.23C135.815 254.82 136.062 254.264 136.062 253.561C136.062 252.779 135.835 252.213 135.379 251.861C134.923 251.503 134.23 251.324 133.299 251.324H130.525V255.846ZM152.049 257.35C152.049 258.743 151.814 259.96 151.346 261.002C150.877 262.037 150.213 262.828 149.354 263.375C148.494 263.922 147.492 264.195 146.346 264.195C145.226 264.195 144.233 263.922 143.367 263.375C142.501 262.822 141.827 262.037 141.346 261.021C140.87 259.999 140.626 258.818 140.613 257.477V256.451C140.613 255.084 140.851 253.876 141.326 252.828C141.801 251.78 142.472 250.979 143.338 250.426C144.21 249.866 145.206 249.586 146.326 249.586C147.465 249.586 148.468 249.863 149.334 250.416C150.206 250.963 150.877 251.76 151.346 252.809C151.814 253.85 152.049 255.064 152.049 256.451V257.35ZM150.184 256.432C150.184 254.745 149.845 253.453 149.168 252.555C148.491 251.65 147.544 251.197 146.326 251.197C145.141 251.197 144.207 251.65 143.523 252.555C142.846 253.453 142.498 254.703 142.479 256.305V257.35C142.479 258.984 142.82 260.27 143.504 261.207C144.194 262.138 145.141 262.604 146.346 262.604C147.557 262.604 148.494 262.164 149.158 261.285C149.822 260.4 150.164 259.133 150.184 257.486V256.432ZM165.799 257.35C165.799 258.743 165.564 259.96 165.096 261.002C164.627 262.037 163.963 262.828 163.104 263.375C162.244 263.922 161.242 264.195 160.096 264.195C158.976 264.195 157.983 263.922 157.117 263.375C156.251 262.822 155.577 262.037 155.096 261.021C154.62 259.999 154.376 258.818 154.363 257.477V256.451C154.363 255.084 154.601 253.876 155.076 252.828C155.551 251.78 156.222 250.979 157.088 250.426C157.96 249.866 158.956 249.586 160.076 249.586C161.215 249.586 162.218 249.863 163.084 250.416C163.956 250.963 164.627 251.76 165.096 252.809C165.564 253.85 165.799 255.064 165.799 256.451V257.35ZM163.934 256.432C163.934 254.745 163.595 253.453 162.918 252.555C162.241 251.65 161.294 251.197 160.076 251.197C158.891 251.197 157.957 251.65 157.273 252.555C156.596 253.453 156.248 254.703 156.229 256.305V257.35C156.229 258.984 156.57 260.27 157.254 261.207C157.944 262.138 158.891 262.604 160.096 262.604C161.307 262.604 162.244 262.164 162.908 261.285C163.572 260.4 163.914 259.133 163.934 257.486V256.432ZM172.225 257.389L170.486 259.195V264H168.611V249.781H170.486V256.812L176.805 249.781H179.07L173.475 256.061L179.51 264H177.264L172.225 257.389Z" fill="white"/>
<rect x="102" y="155" width="488" height="75" fill="#586E58"/>
<path d="M34 192.5L102.25 154.828L102.25 230.172L34 192.5Z" fill="#586E58"/>
<path d="M657 192.5L588.75 230.172V154.828L657 192.5Z" fill="#586E58"/>
<rect x="307" y="155" width="77" height="75" fill="#DFF68F"/>
<path d="M142.68 185.724H135.696V187.992H152.796V185.724H145.344V182.376H153.84V180.108H145.344V176.868H142.68V180.108H134.544V182.376H142.68V185.724ZM136.812 192.78H151.5V196.92H153.984V190.584H134.4V196.92H136.812V192.78ZM132.564 178.128H123.24V180.288H132.564V178.128ZM133.644 182.844H121.512V185.04H133.644V182.844ZM130.44 199.476V205.488H125.256V199.476H130.44ZM132.708 197.28H122.988V209.34H125.256V207.648H132.708V197.28ZM123.024 194.616H132.708V192.456H123.024V194.616ZM123.024 189.828H132.708V187.704H123.024V189.828ZM139.692 195.156C139.404 201.888 138.576 205.632 132.816 207.684C133.356 208.188 134.076 209.196 134.364 209.772C140.7 207.288 141.888 202.788 142.212 195.156H139.692ZM149.196 206.928C148.44 206.928 148.332 206.82 148.332 205.92V195.156H145.848V205.92C145.848 208.548 146.424 209.34 148.872 209.34H151.86C153.984 209.34 154.632 208.08 154.812 203.256C154.164 203.04 153.084 202.644 152.616 202.212C152.508 206.352 152.364 206.928 151.572 206.928H149.196ZM183 200.556V202.752H165.288V200.556H183ZM165.288 206.784V204.48H183V206.784H165.288ZM162.696 209.844H165.288V208.656H183V209.772H185.664V198.72H162.696V209.844ZM175.188 185.184H182.856V187.308H175.188V185.184ZM175.188 181.152H182.856V183.168H175.188V181.152ZM175.188 195.048V192.924H187.464V191.088H175.188V189.108H185.484V185.184H189.876V183.168H185.484V179.352H175.188V176.832H172.56V179.352H161.94V181.152H172.56V183.168H158.16V185.184H172.56V187.308H161.544V189.108H172.56V191.088H160.536V192.924H172.56V195.048H158.088V197.028H189.912V195.048H175.188Z" fill="white"/>
<rect x="199" y="31" width="66" height="64" rx="3" fill="#ABACA6" stroke="white" stroke-width="6"/>
<path d="M227.324 41.0938V54.6289C227.315 56.5065 226.723 58.0423 225.547 59.2363C224.38 60.4303 222.794 61.1003 220.789 61.2461L220.092 61.2734C217.913 61.2734 216.177 60.6855 214.883 59.5098C213.589 58.334 212.932 56.7161 212.914 54.6562V41.0938H215.512V54.5742C215.512 56.0143 215.908 57.1354 216.701 57.9375C217.494 58.7305 218.624 59.127 220.092 59.127C221.577 59.127 222.712 58.7305 223.496 57.9375C224.289 57.1445 224.686 56.028 224.686 54.5879V41.0938H227.324ZM249.68 41.0938V54.6289C249.671 56.5065 249.079 58.0423 247.903 59.2363C246.736 60.4303 245.151 61.1003 243.145 61.2461L242.448 61.2734C240.27 61.2734 238.533 60.6855 237.239 59.5098C235.945 58.334 235.289 56.7161 235.27 54.6562V41.0938H237.868V54.5742C237.868 56.0143 238.264 57.1354 239.057 57.9375C239.85 58.7305 240.981 59.127 242.448 59.127C243.934 59.127 245.068 58.7305 245.852 57.9375C246.645 57.1445 247.042 56.028 247.042 54.5879V41.0938H249.68Z" fill="white"/>
<path d="M228.697 87H215.654V85.1816L222.545 77.5254C223.566 76.3678 224.268 75.429 224.65 74.709C225.042 73.9798 225.238 73.2279 225.238 72.4531C225.238 71.4141 224.924 70.5618 224.295 69.8965C223.666 69.2311 222.827 68.8984 221.779 68.8984C220.521 68.8984 219.542 69.2585 218.84 69.9785C218.147 70.6895 217.801 71.6829 217.801 72.959H215.271C215.271 71.127 215.859 69.6458 217.035 68.5156C218.22 67.3854 219.801 66.8203 221.779 66.8203C223.63 66.8203 225.092 67.3079 226.168 68.2832C227.243 69.2493 227.781 70.5391 227.781 72.1523C227.781 74.112 226.533 76.4453 224.035 79.1523L218.703 84.9355H228.697V87ZM245.503 67.0801V69.2266H245.038C243.069 69.263 241.501 69.8464 240.335 70.9766C239.168 72.1068 238.494 73.6973 238.311 75.748C239.36 74.5449 240.79 73.9434 242.604 73.9434C244.336 73.9434 245.717 74.554 246.747 75.7754C247.786 76.9967 248.305 78.5736 248.305 80.5059C248.305 82.5566 247.745 84.1973 246.624 85.4277C245.512 86.6582 244.017 87.2734 242.139 87.2734C240.235 87.2734 238.69 86.5443 237.505 85.0859C236.32 83.6185 235.727 81.7318 235.727 79.4258V78.4551C235.727 74.791 236.507 71.9928 238.065 70.0605C239.633 68.1191 241.962 67.1257 245.052 67.0801H245.503ZM242.18 76.0488C241.315 76.0488 240.517 76.3086 239.788 76.8281C239.059 77.3477 238.553 77.9993 238.27 78.7832V79.7129C238.27 81.3535 238.639 82.6751 239.378 83.6777C240.116 84.6803 241.037 85.1816 242.139 85.1816C243.279 85.1816 244.172 84.7624 244.819 83.9238C245.475 83.0853 245.804 81.987 245.804 80.6289C245.804 79.2617 245.471 78.1589 244.805 77.3203C244.149 76.4727 243.274 76.0488 242.18 76.0488Z" fill="white"/>
</svg>
