<svg width="691" height="309" viewBox="0 0 691 309" fill="none" xmlns="http://www.w3.org/2000/svg">
<rect width="691" height="309" fill="#ABACA6"/>
<path d="M321.872 44.704H314.512V37.152H321.872V44.704ZM314.512 70.304V60.128H321.872V68.64L314.512 70.304ZM321.872 56.416H314.512V48.48H321.872V56.416ZM310.672 71.136C308.88 71.52 307.216 71.84 305.744 72.16L306.64 76.064C310.992 75.104 316.432 73.76 321.872 72.416V81.376H325.776V47.072H338.32C337.616 53.6 336.4 59.232 334.672 63.968C332.88 59.424 331.536 54.304 330.64 48.928L327.312 49.632C328.464 56.608 330.256 63.2 332.688 68.704C331.024 71.968 329.104 74.656 326.864 76.704C327.76 77.408 329.104 79.072 329.68 80.032C331.664 78.24 333.392 75.936 334.992 73.12C336.784 76.128 338.832 78.688 341.2 80.608C341.84 79.52 343.12 78.112 344.016 77.408C341.264 75.424 338.96 72.544 337.04 68.96C339.792 62.496 341.648 54.112 342.608 43.808L340.176 43.04L339.408 43.168H325.776V37.152H337.36V32.992H307.088V37.152H310.672V71.136ZM301.328 66.272H308.688V62.048H301.328V53.92H309.2V49.696H300.432V42.208H307.984V38.048H300.432V30.432H296.208V38.048H287.056V42.208H296.208V49.696H285.456V53.92H297.104V76.896C294.992 74.656 293.392 71.584 292.112 67.424C292.304 64.608 292.304 61.792 292.24 59.104L288.272 58.912C288.464 67.424 288.08 78.24 283.792 85.984C284.688 86.432 286.224 87.776 286.928 88.736C289.168 84.832 290.512 80.288 291.28 75.616C296.08 85.024 303.888 87.2 317.84 87.2H341.52C341.84 85.792 342.736 83.68 343.504 82.528C339.664 82.656 320.784 82.656 317.84 82.656C310.8 82.656 305.424 82.08 301.328 79.968V66.272ZM363.216 40.864V68.704H355.216V40.864H363.216ZM367.632 73.312V36.256H350.864V78.24H355.216V73.312H367.632ZM406.672 60.832V56.288H390.032V45.536H404.048V40.992H390.032V30.816H385.36V40.992H372.368V45.536H385.36V56.288H369.936V60.832H383.504C379.6 69.344 372.88 77.536 365.776 81.504C366.928 82.4 368.336 84.064 369.104 85.216C375.312 81.184 381.2 74.144 385.36 66.08V88.864H390.032V66.016C393.68 73.696 398.736 80.928 403.92 85.088C404.688 83.872 406.288 82.08 407.376 81.184C401.424 77.088 395.472 68.96 391.888 60.832H406.672Z" fill="white"/>
<path d="M320.16 101.304L317.736 101.28C317.88 101.976 317.928 102.84 317.928 103.728C317.928 106.248 317.688 112.32 317.688 115.872C317.688 119.784 320.064 121.224 323.52 121.224C328.8 121.224 331.896 118.2 333.552 115.92L332.184 114.288C330.456 116.784 327.984 119.256 323.592 119.256C321.312 119.256 319.656 118.32 319.656 115.68C319.656 112.104 319.824 106.44 319.944 103.728C319.968 102.936 320.04 102.096 320.16 101.304ZM350.232 105.24L348.36 105.288C348.48 105.6 348.6 106.008 348.696 106.392C348.768 106.752 348.84 107.184 348.912 107.712C346.152 108.264 343.584 110.184 342.384 113.016C342.336 111.48 342.72 108.648 342.984 107.352C343.056 107.064 343.152 106.68 343.272 106.392L341.256 106.224C341.28 106.488 341.28 106.848 341.256 107.208C341.112 108.288 340.704 111.24 340.704 113.544C340.704 115.44 341.04 117.456 341.4 118.656L343.008 118.416C342.912 117.936 342.768 116.928 342.744 116.472C342.72 116.016 342.792 115.608 342.864 115.272C343.416 112.728 345.648 109.872 349.08 109.248C349.152 110.088 349.2 111.072 349.2 112.2C349.2 113.88 349.032 115.44 348.576 116.808C347.304 116.352 346.368 115.32 345.696 113.928L344.688 115.32C345.408 116.784 346.536 117.816 347.856 118.368C347.232 119.424 346.368 120.336 345.144 121.008L346.776 122.016C348.048 121.176 348.984 120.096 349.608 118.824C349.848 118.848 350.064 118.872 350.304 118.872C354.6 118.872 356.544 116.16 356.544 112.92C356.544 109.992 354.504 107.592 350.592 107.568C350.472 106.608 350.352 105.792 350.232 105.24ZM350.88 112.296C350.88 111.216 350.832 110.136 350.736 109.128C353.64 109.248 354.792 110.952 354.792 112.968C354.792 115.368 353.376 117.12 350.304 117.12H350.28C350.712 115.656 350.88 114.048 350.88 112.296ZM365.352 102.408L365.448 104.352C366.024 104.304 366.696 104.232 367.224 104.208C368.328 104.136 371.256 104.016 372.216 103.968C371.472 105.456 370.56 107.544 369.72 109.44C364.992 109.56 361.728 112.272 361.728 115.8C361.728 117.816 363.072 119.088 364.848 119.088C366.096 119.088 367.008 118.656 367.872 117.432C368.784 116.088 369.96 113.256 370.896 111.144C373.392 111.36 375.744 112.224 377.76 113.352C376.992 115.944 375.264 118.512 371.472 120.12L373.056 121.44C376.536 119.712 378.384 117.432 379.368 114.312C380.304 114.936 381.144 115.584 381.864 116.208L382.752 114.144C381.984 113.592 381 112.944 379.848 112.296C380.112 110.904 380.28 109.368 380.352 107.664L378.408 107.448C378.456 108.12 378.432 108.936 378.408 109.656C378.36 110.232 378.312 110.832 378.216 111.432C376.272 110.544 374.04 109.776 371.616 109.512C372.624 107.28 373.68 104.832 374.352 103.752C374.544 103.464 374.76 103.224 374.976 102.96L373.776 101.976C373.464 102.096 373.032 102.192 372.576 102.24C371.568 102.312 368.424 102.48 367.152 102.48C366.672 102.48 365.976 102.456 365.352 102.408ZM363.48 115.56C363.48 113.496 365.472 111.384 368.976 111.12C368.136 112.992 367.224 115.224 366.36 116.352C365.856 116.976 365.472 117.192 364.92 117.192C364.152 117.192 363.48 116.616 363.48 115.56Z" fill="white"/>
<path d="M431.578 44.86C432.046 45.562 432.496 46.498 432.622 47.11H429.436L430.03 46.858C429.85 46.3 429.4 45.544 428.896 44.95C429.85 44.896 430.822 44.842 431.794 44.788L431.578 44.86ZM426.736 48.19H431.848L431.326 48.748C432.28 49.162 433.432 49.846 433.99 50.332L434.692 49.522C434.188 49.09 433.234 48.586 432.388 48.19H439.21V50.35H440.506V47.11H437.266C437.788 46.462 438.346 45.688 438.832 44.95L437.572 44.464C437.176 45.238 436.456 46.372 435.916 47.11H432.676L433.792 46.714C433.648 46.156 433.27 45.364 432.82 44.698C435.358 44.518 437.77 44.23 439.606 43.87L438.724 42.934C435.826 43.51 430.444 43.888 426.052 44.014C426.178 44.266 426.304 44.734 426.34 45.04C426.934 45.022 427.546 45.004 428.176 44.968L427.654 45.184C428.104 45.76 428.59 46.534 428.806 47.11H425.494V50.224H426.736V48.19ZM436.348 49.666C437.392 50.494 438.58 51.718 439.12 52.528L440.074 51.79C439.534 50.98 438.31 49.828 437.266 49.036L436.348 49.666ZM426.862 52.744C428.068 52.042 428.734 50.854 429.148 49.684L428.14 49.252C427.744 50.332 427.024 51.394 425.944 51.97L426.862 52.744ZM435.88 54.544C435.142 55.3 434.17 55.93 433.036 56.434C431.848 55.912 430.858 55.282 430.102 54.544H435.88ZM437.014 53.5L436.798 53.554H431.2C431.578 53.212 431.902 52.852 432.208 52.474L431.884 52.366H434.8C435.97 52.366 436.312 52.024 436.438 50.566C436.096 50.494 435.628 50.368 435.376 50.188C435.304 51.25 435.196 51.376 434.638 51.376H432.01C431.254 51.376 431.128 51.304 431.128 50.944V49.234H429.886V50.962C429.886 51.79 430.102 52.168 430.858 52.294C429.544 53.806 427.384 55.084 425.278 55.894C425.53 56.11 426.016 56.542 426.214 56.776C427.186 56.344 428.212 55.786 429.166 55.156C429.85 55.858 430.678 56.47 431.614 56.992C429.652 57.658 427.366 58.072 425.026 58.288C425.278 58.558 425.602 59.098 425.728 59.404C428.302 59.08 430.858 58.558 433.018 57.676C435.124 58.558 437.644 59.116 440.29 59.386C440.47 59.044 440.776 58.486 441.064 58.216C438.67 58.036 436.402 57.622 434.476 56.992C435.88 56.236 437.032 55.264 437.86 54.058L437.014 53.5ZM448.192 47.866C447.958 50.224 447.49 52.204 446.806 53.824C446.122 53.338 445.402 52.888 444.718 52.492C445.078 51.07 445.456 49.468 445.816 47.866H448.192ZM448.75 46.588L448.516 46.642H446.086C446.356 45.4 446.608 44.194 446.824 43.096L445.546 42.952C445.348 44.068 445.096 45.346 444.808 46.642H442.846V47.866H444.556C444.052 50.116 443.512 52.33 443.08 53.878L444.196 54.454L444.394 53.698C445.024 54.094 445.654 54.526 446.248 54.976C445.402 56.524 444.304 57.64 442.99 58.324C443.278 58.594 443.638 59.08 443.818 59.404C445.222 58.558 446.374 57.388 447.274 55.786C448.03 56.416 448.678 57.046 449.11 57.586L449.92 56.524C449.434 55.93 448.714 55.264 447.868 54.616C448.75 52.6 449.308 50.026 449.542 46.768L448.75 46.588ZM459.28 50.152H454.996V48.55C456.364 47.488 457.894 45.868 458.902 44.428L458.02 43.78L457.75 43.87H450.046V45.094H456.778C456.058 46.012 455.104 47.038 454.204 47.758H453.664V50.152H449.452V51.394H453.664V57.676C453.664 57.946 453.574 58.036 453.268 58.054C452.962 58.072 451.954 58.072 450.82 58.036C451.018 58.378 451.252 58.972 451.324 59.332C452.746 59.332 453.682 59.296 454.24 59.098C454.816 58.882 454.996 58.486 454.996 57.676V51.394H459.28V50.152Z" fill="white"/>
<path d="M427.304 75.142C429.194 74.674 430.634 73.594 431.318 72.172C432.02 73.486 433.424 74.458 435.278 74.908L435.872 73.756C433.586 73.234 432.02 71.848 432.02 70.228V70.192H435.584V69.022H432.02V67.222H430.544V69.022H426.998V70.192H430.562V70.228C430.562 71.956 428.996 73.432 426.674 73.972L427.304 75.142ZM436.574 75.736C433.046 76.24 428.996 76.258 425.918 76.258L426.116 77.5C427.466 77.5 428.996 77.482 430.58 77.428V82.864H432.056V77.338C433.586 77.248 435.17 77.086 436.682 76.834L436.574 75.736ZM437.726 67.204V83.35H439.202V67.204H437.726ZM443.449 68.77V79.264H450.865V68.77H443.449ZM449.425 69.958V78.094H444.889V69.958H449.425ZM454.249 67.186V83.368H455.725V67.186H454.249Z" fill="white"/>
<path d="M324.094 279H321.832V271.113H313.23V279H310.98V261.938H313.23V269.273H321.832V261.938H324.094V279ZM341.215 271.02C341.215 272.691 340.934 274.152 340.371 275.402C339.809 276.645 339.012 277.594 337.98 278.25C336.949 278.906 335.746 279.234 334.371 279.234C333.027 279.234 331.836 278.906 330.797 278.25C329.758 277.586 328.949 276.645 328.371 275.426C327.801 274.199 327.508 272.781 327.492 271.172V269.941C327.492 268.301 327.777 266.852 328.348 265.594C328.918 264.336 329.723 263.375 330.762 262.711C331.809 262.039 333.004 261.703 334.348 261.703C335.715 261.703 336.918 262.035 337.957 262.699C339.004 263.355 339.809 264.312 340.371 265.57C340.934 266.82 341.215 268.277 341.215 269.941V271.02ZM338.977 269.918C338.977 267.895 338.57 266.344 337.758 265.266C336.945 264.18 335.809 263.637 334.348 263.637C332.926 263.637 331.805 264.18 330.984 265.266C330.172 266.344 329.754 267.844 329.73 269.766V271.02C329.73 272.98 330.141 274.523 330.961 275.648C331.789 276.766 332.926 277.324 334.371 277.324C335.824 277.324 336.949 276.797 337.746 275.742C338.543 274.68 338.953 273.16 338.977 271.184V269.918ZM344.59 279V261.938H350.168C352.02 261.938 353.41 262.32 354.34 263.086C355.277 263.852 355.746 264.984 355.746 266.484C355.746 267.281 355.52 267.988 355.066 268.605C354.613 269.215 353.996 269.688 353.215 270.023C354.137 270.281 354.863 270.773 355.395 271.5C355.934 272.219 356.203 273.078 356.203 274.078C356.203 275.609 355.707 276.812 354.715 277.688C353.723 278.562 352.32 279 350.508 279H344.59ZM346.84 271.02V277.16H350.555C351.602 277.16 352.426 276.891 353.027 276.352C353.637 275.805 353.941 275.055 353.941 274.102C353.941 272.047 352.824 271.02 350.59 271.02H346.84ZM346.84 269.215H350.238C351.223 269.215 352.008 268.969 352.594 268.477C353.188 267.984 353.484 267.316 353.484 266.473C353.484 265.535 353.211 264.855 352.664 264.434C352.117 264.004 351.285 263.789 350.168 263.789H346.84V269.215ZM359.543 279V261.938H365.121C366.973 261.938 368.363 262.32 369.293 263.086C370.23 263.852 370.699 264.984 370.699 266.484C370.699 267.281 370.473 267.988 370.02 268.605C369.566 269.215 368.949 269.688 368.168 270.023C369.09 270.281 369.816 270.773 370.348 271.5C370.887 272.219 371.156 273.078 371.156 274.078C371.156 275.609 370.66 276.812 369.668 277.688C368.676 278.562 367.273 279 365.461 279H359.543ZM361.793 271.02V277.16H365.508C366.555 277.16 367.379 276.891 367.98 276.352C368.59 275.805 368.895 275.055 368.895 274.102C368.895 272.047 367.777 271.02 365.543 271.02H361.793ZM361.793 269.215H365.191C366.176 269.215 366.961 268.969 367.547 268.477C368.141 267.984 368.438 267.316 368.438 266.473C368.438 265.535 368.164 264.855 367.617 264.434C367.07 264.004 366.238 263.789 365.121 263.789H361.793V269.215ZM379.043 270.504L383.496 261.938H386.051L380.168 272.637V279H377.918V272.637L372.035 261.938H374.613L379.043 270.504Z" fill="white"/>
<path d="M131.717 259.518L131.99 261.393L132.391 259.703L135.203 249.781H136.785L139.529 259.703L139.92 261.422L140.223 259.508L142.43 249.781H144.314L140.867 264H139.158L136.229 253.639L136.004 252.555L135.779 253.639L132.742 264H131.033L127.596 249.781H129.471L131.717 259.518ZM157.342 257.35C157.342 258.743 157.107 259.96 156.639 261.002C156.17 262.037 155.506 262.828 154.646 263.375C153.787 263.922 152.785 264.195 151.639 264.195C150.519 264.195 149.526 263.922 148.66 263.375C147.794 262.822 147.12 262.037 146.639 261.021C146.163 259.999 145.919 258.818 145.906 257.477V256.451C145.906 255.084 146.144 253.876 146.619 252.828C147.094 251.78 147.765 250.979 148.631 250.426C149.503 249.866 150.499 249.586 151.619 249.586C152.758 249.586 153.761 249.863 154.627 250.416C155.499 250.963 156.17 251.76 156.639 252.809C157.107 253.85 157.342 255.064 157.342 256.451V257.35ZM155.477 256.432C155.477 254.745 155.138 253.453 154.461 252.555C153.784 251.65 152.837 251.197 151.619 251.197C150.434 251.197 149.5 251.65 148.816 252.555C148.139 253.453 147.791 254.703 147.771 256.305V257.35C147.771 258.984 148.113 260.27 148.797 261.207C149.487 262.138 150.434 262.604 151.639 262.604C152.85 262.604 153.787 262.164 154.451 261.285C155.115 260.4 155.457 259.133 155.477 257.486V256.432ZM165.369 258.248H162.029V264H160.145V249.781H164.852C166.453 249.781 167.684 250.146 168.543 250.875C169.409 251.604 169.842 252.665 169.842 254.059C169.842 254.944 169.601 255.715 169.119 256.373C168.644 257.031 167.98 257.522 167.127 257.848L170.467 263.883V264H168.455L165.369 258.248ZM162.029 256.715H164.91C165.841 256.715 166.58 256.474 167.127 255.992C167.68 255.51 167.957 254.866 167.957 254.059C167.957 253.18 167.693 252.506 167.166 252.037C166.645 251.568 165.89 251.331 164.9 251.324H162.029V256.715ZM176.092 257.389L174.354 259.195V264H172.479V249.781H174.354V256.812L180.672 249.781H182.938L177.342 256.061L183.377 264H181.131L176.092 257.389Z" fill="white"/>
<path d="M533.65 260V245.781H538.299C539.842 245.781 541.001 246.1 541.775 246.738C542.557 247.376 542.947 248.32 542.947 249.57C542.947 250.234 542.758 250.824 542.381 251.338C542.003 251.846 541.489 252.24 540.838 252.52C541.606 252.734 542.212 253.145 542.654 253.75C543.104 254.349 543.328 255.065 543.328 255.898C543.328 257.174 542.915 258.177 542.088 258.906C541.261 259.635 540.092 260 538.582 260H533.65ZM535.525 253.35V258.467H538.621C539.493 258.467 540.18 258.242 540.682 257.793C541.189 257.337 541.443 256.712 541.443 255.918C541.443 254.206 540.512 253.35 538.65 253.35H535.525ZM535.525 251.846H538.357C539.178 251.846 539.832 251.641 540.32 251.23C540.815 250.82 541.062 250.264 541.062 249.561C541.062 248.779 540.835 248.213 540.379 247.861C539.923 247.503 539.23 247.324 538.299 247.324H535.525V251.846ZM557.049 253.35C557.049 254.743 556.814 255.96 556.346 257.002C555.877 258.037 555.213 258.828 554.354 259.375C553.494 259.922 552.492 260.195 551.346 260.195C550.226 260.195 549.233 259.922 548.367 259.375C547.501 258.822 546.827 258.037 546.346 257.021C545.87 255.999 545.626 254.818 545.613 253.477V252.451C545.613 251.084 545.851 249.876 546.326 248.828C546.801 247.78 547.472 246.979 548.338 246.426C549.21 245.866 550.206 245.586 551.326 245.586C552.465 245.586 553.468 245.863 554.334 246.416C555.206 246.963 555.877 247.76 556.346 248.809C556.814 249.85 557.049 251.064 557.049 252.451V253.35ZM555.184 252.432C555.184 250.745 554.845 249.453 554.168 248.555C553.491 247.65 552.544 247.197 551.326 247.197C550.141 247.197 549.207 247.65 548.523 248.555C547.846 249.453 547.498 250.703 547.479 252.305V253.35C547.479 254.984 547.82 256.27 548.504 257.207C549.194 258.138 550.141 258.604 551.346 258.604C552.557 258.604 553.494 258.164 554.158 257.285C554.822 256.4 555.164 255.133 555.184 253.486V252.432ZM570.799 253.35C570.799 254.743 570.564 255.96 570.096 257.002C569.627 258.037 568.963 258.828 568.104 259.375C567.244 259.922 566.242 260.195 565.096 260.195C563.976 260.195 562.983 259.922 562.117 259.375C561.251 258.822 560.577 258.037 560.096 257.021C559.62 255.999 559.376 254.818 559.363 253.477V252.451C559.363 251.084 559.601 249.876 560.076 248.828C560.551 247.78 561.222 246.979 562.088 246.426C562.96 245.866 563.956 245.586 565.076 245.586C566.215 245.586 567.218 245.863 568.084 246.416C568.956 246.963 569.627 247.76 570.096 248.809C570.564 249.85 570.799 251.064 570.799 252.451V253.35ZM568.934 252.432C568.934 250.745 568.595 249.453 567.918 248.555C567.241 247.65 566.294 247.197 565.076 247.197C563.891 247.197 562.957 247.65 562.273 248.555C561.596 249.453 561.248 250.703 561.229 252.305V253.35C561.229 254.984 561.57 256.27 562.254 257.207C562.944 258.138 563.891 258.604 565.096 258.604C566.307 258.604 567.244 258.164 567.908 257.285C568.572 256.4 568.914 255.133 568.934 253.486V252.432ZM577.225 253.389L575.486 255.195V260H573.611V245.781H575.486V252.812L581.805 245.781H584.07L578.475 252.061L584.51 260H582.264L577.225 253.389Z" fill="white"/>
<rect x="102" y="155" width="488" height="75" fill="#586E58"/>
<path d="M34 192.5L102.25 154.828L102.25 230.172L34 192.5Z" fill="#586E58"/>
<path d="M657 192.5L588.75 230.172V154.828L657 192.5Z" fill="#586E58"/>
<rect x="307" y="155" width="77" height="75" fill="#DFF68F"/>
<path d="M133.032 184.5H140.304V182.052H133.032V177.012H130.476V182.052H126.66C127.056 180.828 127.416 179.496 127.74 178.236L125.22 177.732C124.5 181.188 123.24 184.788 121.62 187.2C122.268 187.416 123.456 187.884 123.996 188.208C124.608 187.2 125.22 185.904 125.796 184.5H130.476V188.28H121.728V190.728H130.476V194.328H123.384V206.82H125.832V196.776H130.476V209.7H133.032V196.776H138V204.12C138 204.48 137.892 204.588 137.496 204.588C137.136 204.624 135.948 204.624 134.4 204.588C134.76 205.272 135.084 206.208 135.192 206.928C137.172 206.928 138.54 206.892 139.368 206.496C140.268 206.064 140.448 205.38 140.448 204.156V194.328H133.032V190.728H141.708V188.28H133.032V184.5ZM146.82 180.144H144.3V199.944H146.82V180.144ZM150.672 177.264V206.1C150.672 206.712 150.492 206.856 149.916 206.892C149.304 206.892 147.288 206.892 145.164 206.82C145.524 207.648 145.884 208.872 146.028 209.628C148.692 209.628 150.672 209.556 151.788 209.088C152.868 208.62 153.264 207.828 153.264 206.064V177.264H150.672ZM166.332 177.012C164.316 182.484 161.004 187.848 157.44 191.304C157.944 191.88 158.736 193.356 158.988 193.968C160.212 192.708 161.436 191.268 162.552 189.684V209.7H165.216V185.544C166.62 183.06 167.916 180.432 168.888 177.84L166.332 177.012ZM190.488 185.436V182.88H175.512C176.232 181.296 176.916 179.676 177.492 178.02L174.936 177.336C173.172 182.592 170.256 187.776 167.016 191.124C167.628 191.556 168.672 192.456 169.104 192.924C170.904 190.908 172.668 188.316 174.216 185.436H176.7V209.736H179.4V201.024H190.164V198.504H179.4V193.068H189.66V190.584H179.4V185.436H190.488Z" fill="white"/>
<path d="M540.68 185.724H533.696V187.992H550.796V185.724H543.344V182.376H551.84V180.108H543.344V176.868H540.68V180.108H532.544V182.376H540.68V185.724ZM534.812 192.78H549.5V196.92H551.984V190.584H532.4V196.92H534.812V192.78ZM530.564 178.128H521.24V180.288H530.564V178.128ZM531.644 182.844H519.512V185.04H531.644V182.844ZM528.44 199.476V205.488H523.256V199.476H528.44ZM530.708 197.28H520.988V209.34H523.256V207.648H530.708V197.28ZM521.024 194.616H530.708V192.456H521.024V194.616ZM521.024 189.828H530.708V187.704H521.024V189.828ZM537.692 195.156C537.404 201.888 536.576 205.632 530.816 207.684C531.356 208.188 532.076 209.196 532.364 209.772C538.7 207.288 539.888 202.788 540.212 195.156H537.692ZM547.196 206.928C546.44 206.928 546.332 206.82 546.332 205.92V195.156H543.848V205.92C543.848 208.548 544.424 209.34 546.872 209.34H549.86C551.984 209.34 552.632 208.08 552.812 203.256C552.164 203.04 551.084 202.644 550.616 202.212C550.508 206.352 550.364 206.928 549.572 206.928H547.196ZM581 200.556V202.752H563.288V200.556H581ZM563.288 206.784V204.48H581V206.784H563.288ZM560.696 209.844H563.288V208.656H581V209.772H583.664V198.72H560.696V209.844ZM573.188 185.184H580.856V187.308H573.188V185.184ZM573.188 181.152H580.856V183.168H573.188V181.152ZM573.188 195.048V192.924H585.464V191.088H573.188V189.108H583.484V185.184H587.876V183.168H583.484V179.352H573.188V176.832H570.56V179.352H559.94V181.152H570.56V183.168H556.16V185.184H570.56V187.308H559.544V189.108H570.56V191.088H558.536V192.924H570.56V195.048H556.088V197.028H587.912V195.048H573.188Z" fill="white"/>
<rect x="199" y="31" width="66" height="64" rx="3" fill="#ABACA6" stroke="white" stroke-width="6"/>
<path d="M227.324 41.0938V54.6289C227.315 56.5065 226.723 58.0423 225.547 59.2363C224.38 60.4303 222.794 61.1003 220.789 61.2461L220.092 61.2734C217.913 61.2734 216.177 60.6855 214.883 59.5098C213.589 58.334 212.932 56.7161 212.914 54.6562V41.0938H215.512V54.5742C215.512 56.0143 215.908 57.1354 216.701 57.9375C217.494 58.7305 218.624 59.127 220.092 59.127C221.577 59.127 222.712 58.7305 223.496 57.9375C224.289 57.1445 224.686 56.028 224.686 54.5879V41.0938H227.324ZM249.68 41.0938V54.6289C249.671 56.5065 249.079 58.0423 247.903 59.2363C246.736 60.4303 245.151 61.1003 243.145 61.2461L242.448 61.2734C240.27 61.2734 238.533 60.6855 237.239 59.5098C235.945 58.334 235.289 56.7161 235.27 54.6562V41.0938H237.868V54.5742C237.868 56.0143 238.264 57.1354 239.057 57.9375C239.85 58.7305 240.981 59.127 242.448 59.127C243.934 59.127 245.068 58.7305 245.852 57.9375C246.645 57.1445 247.042 56.028 247.042 54.5879V41.0938H249.68Z" fill="white"/>
<path d="M228.697 87H215.654V85.1816L222.545 77.5254C223.566 76.3678 224.268 75.429 224.65 74.709C225.042 73.9798 225.238 73.2279 225.238 72.4531C225.238 71.4141 224.924 70.5618 224.295 69.8965C223.666 69.2311 222.827 68.8984 221.779 68.8984C220.521 68.8984 219.542 69.2585 218.84 69.9785C218.147 70.6895 217.801 71.6829 217.801 72.959H215.271C215.271 71.127 215.859 69.6458 217.035 68.5156C218.22 67.3854 219.801 66.8203 221.779 66.8203C223.63 66.8203 225.092 67.3079 226.168 68.2832C227.243 69.2493 227.781 70.5391 227.781 72.1523C227.781 74.112 226.533 76.4453 224.035 79.1523L218.703 84.9355H228.697V87ZM245.503 67.0801V69.2266H245.038C243.069 69.263 241.501 69.8464 240.335 70.9766C239.168 72.1068 238.494 73.6973 238.311 75.748C239.36 74.5449 240.79 73.9434 242.604 73.9434C244.336 73.9434 245.717 74.554 246.747 75.7754C247.786 76.9967 248.305 78.5736 248.305 80.5059C248.305 82.5566 247.745 84.1973 246.624 85.4277C245.512 86.6582 244.017 87.2734 242.139 87.2734C240.235 87.2734 238.69 86.5443 237.505 85.0859C236.32 83.6185 235.727 81.7318 235.727 79.4258V78.4551C235.727 74.791 236.507 71.9928 238.065 70.0605C239.633 68.1191 241.962 67.1257 245.052 67.0801H245.503ZM242.18 76.0488C241.315 76.0488 240.517 76.3086 239.788 76.8281C239.059 77.3477 238.553 77.9993 238.27 78.7832V79.7129C238.27 81.3535 238.639 82.6751 239.378 83.6777C240.116 84.6803 241.037 85.1816 242.139 85.1816C243.279 85.1816 244.172 84.7624 244.819 83.9238C245.475 83.0853 245.804 81.987 245.804 80.6289C245.804 79.2617 245.471 78.1589 244.805 77.3203C244.149 76.4727 243.274 76.0488 242.18 76.0488Z" fill="white"/>
</svg>
