<svg width="691" height="309" viewBox="0 0 691 309" fill="none" xmlns="http://www.w3.org/2000/svg">
<rect width="691" height="309" fill="#ABACA6"/>
<path d="M305.168 44H318.096V39.648H305.168V30.688H300.624V39.648H293.84C294.544 37.472 295.184 35.104 295.76 32.864L291.28 31.968C290 38.112 287.76 44.512 284.88 48.8C286.032 49.184 288.144 50.016 289.104 50.592C290.192 48.8 291.28 46.496 292.304 44H300.624V50.72H285.072V55.072H300.624V61.472H288.016V83.68H292.368V65.824H300.624V88.8H305.168V65.824H314V78.88C314 79.52 313.808 79.712 313.104 79.712C312.464 79.776 310.352 79.776 307.6 79.712C308.24 80.928 308.816 82.592 309.008 83.872C312.528 83.872 314.96 83.808 316.432 83.104C318.032 82.336 318.352 81.12 318.352 78.944V61.472H305.168V55.072H320.592V50.72H305.168V44ZM329.68 36.256H325.2V71.456H329.68V36.256ZM336.528 31.136V82.4C336.528 83.488 336.208 83.744 335.184 83.808C334.096 83.808 330.512 83.808 326.736 83.68C327.376 85.152 328.016 87.328 328.272 88.672C333.008 88.672 336.528 88.544 338.512 87.712C340.432 86.88 341.136 85.472 341.136 82.336V31.136H336.528ZM364.368 30.688C360.784 40.416 354.896 49.952 348.56 56.096C349.456 57.12 350.864 59.744 351.312 60.832C353.488 58.592 355.664 56.032 357.648 53.216V88.8H362.384V45.856C364.88 41.44 367.184 36.768 368.912 32.16L364.368 30.688ZM407.312 45.664V41.12H380.688C381.968 38.304 383.184 35.424 384.208 32.48L379.664 31.264C376.528 40.608 371.344 49.824 365.584 55.776C366.672 56.544 368.528 58.144 369.296 58.976C372.496 55.392 375.632 50.784 378.384 45.664H382.8V88.864H387.6V73.376H406.736V68.896H387.6V59.232H405.84V54.816H387.6V45.664H407.312Z" fill="white"/>
<path d="M315.76 103.496H313.72C313.792 103.904 313.84 104.768 313.84 105.296V108.728C311.272 108.944 308.488 109.208 306.136 109.424C306.16 108.152 306.16 106.976 306.16 106.184C306.16 105.44 306.208 104.792 306.256 104.24H304.168C304.264 104.984 304.312 105.536 304.312 106.28C304.312 106.688 304.312 108.008 304.288 109.616C303.136 109.712 302.176 109.808 301.576 109.856C300.712 109.952 299.824 110 299.08 110L299.296 111.968C299.944 111.872 300.976 111.728 301.72 111.632C302.344 111.56 303.232 111.464 304.288 111.344C304.288 113.744 304.288 116.288 304.312 117.32C304.432 121.136 304.96 122.408 310.504 122.408C312.928 122.408 315.856 122.192 317.464 122.024L317.536 119.984C315.976 120.272 313 120.56 310.408 120.56C306.256 120.56 306.208 119.648 306.136 117.056C306.112 116.12 306.112 113.624 306.136 111.152C308.536 110.912 311.344 110.624 313.816 110.432C313.768 111.944 313.672 113.576 313.552 114.368C313.48 114.92 313.216 115.016 312.64 115.016C312.088 115.016 311.056 114.896 310.24 114.704L310.192 116.36C310.84 116.48 312.496 116.696 313.36 116.696C314.464 116.696 314.992 116.384 315.208 115.328C315.448 114.2 315.496 112.064 315.544 110.312C316.6 110.24 317.512 110.192 318.232 110.168C318.832 110.168 319.744 110.144 320.128 110.168V108.296C319.552 108.32 318.88 108.368 318.256 108.416C317.464 108.464 316.552 108.512 315.592 108.584C315.616 107.528 315.616 106.328 315.64 105.224C315.664 104.72 315.688 103.904 315.76 103.496ZM327.352 105.248L325.024 105.2C325.168 105.776 325.192 106.784 325.192 107.336C325.192 108.728 325.24 111.656 325.456 113.744C326.104 119.96 328.288 122.216 330.568 122.216C332.176 122.216 333.64 120.824 335.08 116.744L333.568 115.04C332.944 117.44 331.816 119.936 330.592 119.936C328.888 119.936 327.712 117.272 327.328 113.264C327.16 111.272 327.136 109.088 327.16 107.576C327.16 106.952 327.256 105.824 327.352 105.248ZM339.856 105.92L337.984 106.568C340.288 109.376 341.728 114.296 342.16 118.64L344.08 117.848C343.72 113.792 341.992 108.704 339.856 105.92ZM358.576 104.984C358.744 105.536 358.984 106.256 359.272 107.144C356.656 107.336 353.32 107.288 349.792 106.856L349.84 108.776C353.608 109.064 357.064 109.088 359.92 108.824C360.736 110.816 361.888 112.928 362.824 114.296C361.96 114.2 360.184 114.056 358.84 113.936L358.696 115.544C360.424 115.664 363.328 115.928 364.48 116.192L365.464 114.848C365.104 114.44 364.744 114.032 364.408 113.576C363.52 112.328 362.464 110.48 361.72 108.632C363.328 108.416 365.224 108.08 366.688 107.648L366.472 105.776C364.84 106.328 362.848 106.712 361.12 106.952C360.64 105.56 360.208 103.976 360.016 102.848L357.976 103.112C358.192 103.736 358.408 104.48 358.576 104.984ZM353.488 114.512L351.616 114.08C350.944 115.496 350.464 116.744 350.464 118.064C350.464 121.328 353.344 122.984 357.904 123.008C360.568 123.008 362.608 122.744 364.096 122.48L364.192 120.56C362.512 120.944 360.448 121.184 358 121.16C354.448 121.136 352.36 120.128 352.36 117.848C352.36 116.696 352.768 115.664 353.488 114.512ZM386.896 104.288L385.12 102.704C384.832 103.16 384.232 103.832 383.752 104.312C382.12 105.968 378.472 108.848 376.672 110.36C374.512 112.184 374.224 113.216 376.504 115.112C378.736 116.96 382.384 120.08 384.064 121.808C384.664 122.384 385.216 122.984 385.72 123.56L387.424 121.976C384.88 119.432 380.632 116 378.448 114.224C376.912 112.928 376.936 112.544 378.376 111.32C380.152 109.832 383.608 107.096 385.24 105.656C385.648 105.32 386.392 104.696 386.896 104.288Z" fill="white"/>
<path d="M433.72 57.514V52.942H439.498V51.646H433.72V47.722H440.164V46.408H433.72V42.952H432.352V46.408H428.698C429.094 45.49 429.418 44.518 429.706 43.528L428.356 43.24C427.654 45.796 426.502 48.28 425.026 49.864C425.386 50.044 425.98 50.44 426.25 50.656C426.916 49.846 427.546 48.856 428.122 47.722H432.352V51.646H427.006V52.942H432.352V57.514H425.062V58.81H441.01V57.514H433.72ZM453.178 55.714H457.48V54.652H453.178V52.852H457.912V51.754H453.178V50.314H451.864V51.754H449.056C449.254 51.358 449.434 50.926 449.578 50.512L448.39 50.26C447.904 51.592 447.076 52.924 446.14 53.824C446.428 53.968 446.932 54.31 447.148 54.508C447.598 54.058 448.03 53.482 448.426 52.852H451.864V54.652H447.796V55.714H451.864V57.874H446.176V59.008H458.92V57.874H453.178V55.714ZM446.95 48.802C448.444 48.496 450.028 48.064 451.504 47.542C452.764 47.974 453.916 48.424 454.816 48.802H446.95ZM453.88 45.526C453.232 45.904 452.44 46.264 451.558 46.57C450.334 46.192 449.074 45.814 447.922 45.526H453.88ZM455.302 48.802L455.968 48.19C455.158 47.83 454.078 47.434 452.89 47.02C453.826 46.624 454.69 46.174 455.374 45.688L455.086 45.526H458.182V44.428H451.63V42.952H450.316V44.428H444.034V45.526H447.454L446.698 46.138C447.76 46.39 448.912 46.714 450.046 47.074C448.66 47.488 447.184 47.812 445.888 48.046C446.05 48.226 446.23 48.568 446.356 48.802H444.304V51.664C444.304 53.716 444.106 56.578 442.648 58.666C442.936 58.828 443.494 59.26 443.692 59.512C445.276 57.262 445.582 53.95 445.582 51.682V49.918H459.064V48.802H455.302Z" fill="white"/>
<path d="M430.688 70.282H433.568V69.076H426.206V70.282H429.266V71.74C429.266 74.71 428.006 77.644 425.756 78.994L426.656 80.092C428.258 79.084 429.428 77.194 429.986 74.98C430.544 77.032 431.66 78.76 433.226 79.696L434.126 78.616C431.894 77.356 430.688 74.548 430.688 71.74V70.282ZM435.008 72.982H432.344V74.188H435.008V82.486H436.412V67.546H435.008V72.982ZM438.248 67.168V83.314H439.67V67.168H438.248ZM451.891 75.088C449.515 74.278 447.967 72.28 447.967 70.138V69.508H451.531V68.32H442.873V69.508H446.491V70.156C446.491 72.46 444.871 74.548 442.441 75.394L443.215 76.564C445.105 75.862 446.563 74.44 447.247 72.64C447.949 74.296 449.335 75.61 451.135 76.24L451.891 75.088ZM444.529 78.976H453.565V83.35H455.041V77.788H444.529V78.976ZM457.435 71.434H455.041V67.204H453.565V76.924H455.041V72.658H457.435V71.434Z" fill="white"/>
<path d="M317.66 273.621L317.988 275.871L318.469 273.844L321.844 261.938H323.742L327.035 273.844L327.504 275.906L327.867 273.609L330.516 261.938H332.777L328.641 279H326.59L323.074 266.566L322.805 265.266L322.535 266.566L318.891 279H316.84L312.715 261.938H314.965L317.66 273.621ZM348.41 271.02C348.41 272.691 348.129 274.152 347.566 275.402C347.004 276.645 346.207 277.594 345.176 278.25C344.145 278.906 342.941 279.234 341.566 279.234C340.223 279.234 339.031 278.906 337.992 278.25C336.953 277.586 336.145 276.645 335.566 275.426C334.996 274.199 334.703 272.781 334.688 271.172V269.941C334.688 268.301 334.973 266.852 335.543 265.594C336.113 264.336 336.918 263.375 337.957 262.711C339.004 262.039 340.199 261.703 341.543 261.703C342.91 261.703 344.113 262.035 345.152 262.699C346.199 263.355 347.004 264.312 347.566 265.57C348.129 266.82 348.41 268.277 348.41 269.941V271.02ZM346.172 269.918C346.172 267.895 345.766 266.344 344.953 265.266C344.141 264.18 343.004 263.637 341.543 263.637C340.121 263.637 339 264.18 338.18 265.266C337.367 266.344 336.949 267.844 336.926 269.766V271.02C336.926 272.98 337.336 274.523 338.156 275.648C338.984 276.766 340.121 277.324 341.566 277.324C343.02 277.324 344.145 276.797 344.941 275.742C345.738 274.68 346.148 273.16 346.172 271.184V269.918ZM358.043 272.098H354.035V279H351.773V261.938H357.422C359.344 261.938 360.82 262.375 361.852 263.25C362.891 264.125 363.41 265.398 363.41 267.07C363.41 268.133 363.121 269.059 362.543 269.848C361.973 270.637 361.176 271.227 360.152 271.617L364.16 278.859V279H361.746L358.043 272.098ZM354.035 270.258H357.492C358.609 270.258 359.496 269.969 360.152 269.391C360.816 268.812 361.148 268.039 361.148 267.07C361.148 266.016 360.832 265.207 360.199 264.645C359.574 264.082 358.668 263.797 357.48 263.789H354.035V270.258ZM370.91 271.066L368.824 273.234V279H366.574V261.938H368.824V270.375L376.406 261.938H379.125L372.41 269.473L379.652 279H376.957L370.91 271.066Z" fill="white"/>
<path d="M139.578 264H137.693V257.428H130.525V264H128.65V249.781H130.525V255.895H137.693V249.781H139.578V264ZM153.846 257.35C153.846 258.743 153.611 259.96 153.143 261.002C152.674 262.037 152.01 262.828 151.15 263.375C150.291 263.922 149.288 264.195 148.143 264.195C147.023 264.195 146.03 263.922 145.164 263.375C144.298 262.822 143.624 262.037 143.143 261.021C142.667 259.999 142.423 258.818 142.41 257.477V256.451C142.41 255.084 142.648 253.876 143.123 252.828C143.598 251.78 144.269 250.979 145.135 250.426C146.007 249.866 147.003 249.586 148.123 249.586C149.262 249.586 150.265 249.863 151.131 250.416C152.003 250.963 152.674 251.76 153.143 252.809C153.611 253.85 153.846 255.064 153.846 256.451V257.35ZM151.98 256.432C151.98 254.745 151.642 253.453 150.965 252.555C150.288 251.65 149.34 251.197 148.123 251.197C146.938 251.197 146.004 251.65 145.32 252.555C144.643 253.453 144.295 254.703 144.275 256.305V257.35C144.275 258.984 144.617 260.27 145.301 261.207C145.991 262.138 146.938 262.604 148.143 262.604C149.354 262.604 150.291 262.164 150.955 261.285C151.619 260.4 151.961 259.133 151.98 257.486V256.432ZM159.08 249.781L163.729 261.383L168.377 249.781H170.809V264H168.934V258.463L169.109 252.486L164.441 264H163.006L158.348 252.516L158.533 258.463V264H156.658V249.781H159.08ZM182.156 257.428H175.994V262.467H183.152V264H174.119V249.781H183.055V251.324H175.994V255.895H182.156V257.428Z" fill="white"/>
<path d="M533.578 261H531.693V254.428H524.525V261H522.65V246.781H524.525V252.895H531.693V246.781H533.578V261ZM547.846 254.35C547.846 255.743 547.611 256.96 547.143 258.002C546.674 259.037 546.01 259.828 545.15 260.375C544.291 260.922 543.288 261.195 542.143 261.195C541.023 261.195 540.03 260.922 539.164 260.375C538.298 259.822 537.624 259.037 537.143 258.021C536.667 256.999 536.423 255.818 536.41 254.477V253.451C536.41 252.084 536.648 250.876 537.123 249.828C537.598 248.78 538.269 247.979 539.135 247.426C540.007 246.866 541.003 246.586 542.123 246.586C543.262 246.586 544.265 246.863 545.131 247.416C546.003 247.963 546.674 248.76 547.143 249.809C547.611 250.85 547.846 252.064 547.846 253.451V254.35ZM545.98 253.432C545.98 251.745 545.642 250.453 544.965 249.555C544.288 248.65 543.34 248.197 542.123 248.197C540.938 248.197 540.004 248.65 539.32 249.555C538.643 250.453 538.295 251.703 538.275 253.305V254.35C538.275 255.984 538.617 257.27 539.301 258.207C539.991 259.138 540.938 259.604 542.143 259.604C543.354 259.604 544.291 259.164 544.955 258.285C545.619 257.4 545.961 256.133 545.98 254.486V253.432ZM550.658 261V246.781H555.307C556.85 246.781 558.008 247.1 558.783 247.738C559.564 248.376 559.955 249.32 559.955 250.57C559.955 251.234 559.766 251.824 559.389 252.338C559.011 252.846 558.497 253.24 557.846 253.52C558.614 253.734 559.219 254.145 559.662 254.75C560.111 255.349 560.336 256.065 560.336 256.898C560.336 258.174 559.923 259.177 559.096 259.906C558.269 260.635 557.1 261 555.59 261H550.658ZM552.533 254.35V259.467H555.629C556.501 259.467 557.188 259.242 557.689 258.793C558.197 258.337 558.451 257.712 558.451 256.918C558.451 255.206 557.52 254.35 555.658 254.35H552.533ZM552.533 252.846H555.365C556.186 252.846 556.84 252.641 557.328 252.23C557.823 251.82 558.07 251.264 558.07 250.561C558.07 249.779 557.842 249.213 557.387 248.861C556.931 248.503 556.238 248.324 555.307 248.324H552.533V252.846ZM563.119 261V246.781H567.768C569.311 246.781 570.469 247.1 571.244 247.738C572.025 248.376 572.416 249.32 572.416 250.57C572.416 251.234 572.227 251.824 571.85 252.338C571.472 252.846 570.958 253.24 570.307 253.52C571.075 253.734 571.68 254.145 572.123 254.75C572.572 255.349 572.797 256.065 572.797 256.898C572.797 258.174 572.383 259.177 571.557 259.906C570.73 260.635 569.561 261 568.051 261H563.119ZM564.994 254.35V259.467H568.09C568.962 259.467 569.649 259.242 570.15 258.793C570.658 258.337 570.912 257.712 570.912 256.918C570.912 255.206 569.981 254.35 568.119 254.35H564.994ZM564.994 252.846H567.826C568.646 252.846 569.301 252.641 569.789 252.23C570.284 251.82 570.531 251.264 570.531 250.561C570.531 249.779 570.303 249.213 569.848 248.861C569.392 248.503 568.699 248.324 567.768 248.324H564.994V252.846ZM579.369 253.92L583.08 246.781H585.209L580.307 255.697V261H578.432V255.697L573.529 246.781H575.678L579.369 253.92Z" fill="white"/>
<rect x="102" y="155" width="488" height="75" fill="#586E58"/>
<path d="M34 192.5L102.25 154.828L102.25 230.172L34 192.5Z" fill="#586E58"/>
<path d="M657 192.5L588.75 230.172V154.828L657 192.5Z" fill="#586E58"/>
<rect x="307" y="155" width="77" height="75" fill="#DFF68F"/>
<path d="M122.232 178.776H118.848C118.992 179.316 119.1 180.576 119.1 181.332V185.04H109.092C107.94 185.04 107.04 184.968 106.032 184.824V187.884C107.004 187.776 108.012 187.74 109.128 187.74H119.1V203.976C119.1 204.948 118.668 205.344 117.696 205.344C116.76 205.344 115.14 205.236 113.556 204.948L113.808 207.792C115.284 207.972 117.408 208.044 118.92 208.044C121.116 208.044 122.016 207.072 122.016 205.2V187.74H131.556C132.42 187.74 133.5 187.776 134.472 187.848V184.86C133.572 184.968 132.384 185.04 131.52 185.04H122.016V181.332C122.016 180.576 122.16 179.28 122.232 178.776ZM114.312 193.32L111.792 192.096C110.388 195.012 107.328 199.296 104.916 201.492L107.4 203.184C109.452 200.988 112.8 196.38 114.312 193.32ZM129.36 192.096L126.912 193.428C128.82 195.696 131.52 200.16 132.924 203.004L135.588 201.528C134.148 198.936 131.304 194.4 129.36 192.096ZM141.672 191.412V194.94C142.788 194.832 144.696 194.76 146.676 194.76H166.44C168.06 194.76 169.572 194.904 170.292 194.94V191.412C169.5 191.484 168.204 191.592 166.404 191.592H146.676C144.66 191.592 142.752 191.484 141.672 191.412ZM191.702 180.144L188.102 179.424C187.994 180.36 187.85 181.224 187.418 182.88C186.41 186.408 182.738 197.928 180.722 202.896C180.074 202.932 179.462 202.968 178.922 203.004C177.878 203.04 176.654 203.076 175.574 203.04L176.114 206.388C177.158 206.244 178.202 206.064 179.102 205.992C183.926 205.56 195.986 204.228 201.53 203.508C202.358 205.272 203.042 206.928 203.51 208.224L206.534 206.856C205.022 203.148 201.098 195.912 198.542 192.204L195.842 193.428C197.174 195.156 198.794 197.964 200.234 200.808C196.274 201.348 189.362 202.104 184.07 202.608C185.87 197.928 189.434 186.876 190.478 183.492C190.946 181.98 191.342 181.044 191.702 180.144Z" fill="white"/>
<path d="M540.428 184.896H536.288V180.648H540.428V184.896ZM536.288 199.296V193.572H540.428V198.36L536.288 199.296ZM540.428 191.484H536.288V187.02H540.428V191.484ZM534.128 199.764C533.12 199.98 532.184 200.16 531.356 200.34L531.86 202.536C534.308 201.996 537.368 201.24 540.428 200.484V205.524H542.624V186.228H549.68C549.284 189.9 548.6 193.068 547.628 195.732C546.62 193.176 545.864 190.296 545.36 187.272L543.488 187.668C544.136 191.592 545.144 195.3 546.512 198.396C545.576 200.232 544.496 201.744 543.236 202.896C543.74 203.292 544.496 204.228 544.82 204.768C545.936 203.76 546.908 202.464 547.808 200.88C548.816 202.572 549.968 204.012 551.3 205.092C551.66 204.48 552.38 203.688 552.884 203.292C551.336 202.176 550.04 200.556 548.96 198.54C550.508 194.904 551.552 190.188 552.092 184.392L550.724 183.96L550.292 184.032H542.624V180.648H549.14V178.308H532.112V180.648H534.128V199.764ZM528.872 197.028H533.012V194.652H528.872V190.08H533.3V187.704H528.368V183.492H532.616V181.152H528.368V176.868H525.992V181.152H520.844V183.492H525.992V187.704H519.944V190.08H526.496V203.004C525.308 201.744 524.408 200.016 523.688 197.676C523.796 196.092 523.796 194.508 523.76 192.996L521.528 192.888C521.636 197.676 521.42 203.76 519.008 208.116C519.512 208.368 520.376 209.124 520.772 209.664C522.032 207.468 522.788 204.912 523.22 202.284C525.92 207.576 530.312 208.8 538.16 208.8H551.48C551.66 208.008 552.164 206.82 552.596 206.172C550.436 206.244 539.816 206.244 538.16 206.244C534.2 206.244 531.176 205.92 528.872 204.732V197.028ZM563.684 182.736V198.396H559.184V182.736H563.684ZM566.168 200.988V180.144H556.736V203.76H559.184V200.988H566.168ZM588.128 193.968V191.412H578.768V185.364H586.652V182.808H578.768V177.084H576.14V182.808H568.832V185.364H576.14V191.412H567.464V193.968H575.096C572.9 198.756 569.12 203.364 565.124 205.596C565.772 206.1 566.564 207.036 566.996 207.684C570.488 205.416 573.8 201.456 576.14 196.92V209.736H578.768V196.884C580.82 201.204 583.664 205.272 586.58 207.612C587.012 206.928 587.912 205.92 588.524 205.416C585.176 203.112 581.828 198.54 579.812 193.968H588.128Z" fill="white"/>
<rect x="199" y="31" width="66" height="64" rx="3" fill="#ABACA6" stroke="white" stroke-width="6"/>
<path d="M227.324 41.0938V54.6289C227.315 56.5065 226.723 58.0423 225.547 59.2363C224.38 60.4303 222.794 61.1003 220.789 61.2461L220.092 61.2734C217.913 61.2734 216.177 60.6855 214.883 59.5098C213.589 58.334 212.932 56.7161 212.914 54.6562V41.0938H215.512V54.5742C215.512 56.0143 215.908 57.1354 216.701 57.9375C217.494 58.7305 218.624 59.127 220.092 59.127C221.577 59.127 222.712 58.7305 223.496 57.9375C224.289 57.1445 224.686 56.028 224.686 54.5879V41.0938H227.324ZM249.68 41.0938V54.6289C249.671 56.5065 249.079 58.0423 247.903 59.2363C246.736 60.4303 245.151 61.1003 243.145 61.2461L242.448 61.2734C240.27 61.2734 238.533 60.6855 237.239 59.5098C235.945 58.334 235.289 56.7161 235.27 54.6562V41.0938H237.868V54.5742C237.868 56.0143 238.264 57.1354 239.057 57.9375C239.85 58.7305 240.981 59.127 242.448 59.127C243.934 59.127 245.068 58.7305 245.852 57.9375C246.645 57.1445 247.042 56.028 247.042 54.5879V41.0938H249.68Z" fill="white"/>
<path d="M228.697 87H215.654V85.1816L222.545 77.5254C223.566 76.3678 224.268 75.429 224.65 74.709C225.042 73.9798 225.238 73.2279 225.238 72.4531C225.238 71.4141 224.924 70.5618 224.295 69.8965C223.666 69.2311 222.827 68.8984 221.779 68.8984C220.521 68.8984 219.542 69.2585 218.84 69.9785C218.147 70.6895 217.801 71.6829 217.801 72.959H215.271C215.271 71.127 215.859 69.6458 217.035 68.5156C218.22 67.3854 219.801 66.8203 221.779 66.8203C223.63 66.8203 225.092 67.3079 226.168 68.2832C227.243 69.2493 227.781 70.5391 227.781 72.1523C227.781 74.112 226.533 76.4453 224.035 79.1523L218.703 84.9355H228.697V87ZM245.503 67.0801V69.2266H245.038C243.069 69.263 241.501 69.8464 240.335 70.9766C239.168 72.1068 238.494 73.6973 238.311 75.748C239.36 74.5449 240.79 73.9434 242.604 73.9434C244.336 73.9434 245.717 74.554 246.747 75.7754C247.786 76.9967 248.305 78.5736 248.305 80.5059C248.305 82.5566 247.745 84.1973 246.624 85.4277C245.512 86.6582 244.017 87.2734 242.139 87.2734C240.235 87.2734 238.69 86.5443 237.505 85.0859C236.32 83.6185 235.727 81.7318 235.727 79.4258V78.4551C235.727 74.791 236.507 71.9928 238.065 70.0605C239.633 68.1191 241.962 67.1257 245.052 67.0801H245.503ZM242.18 76.0488C241.315 76.0488 240.517 76.3086 239.788 76.8281C239.059 77.3477 238.553 77.9993 238.27 78.7832V79.7129C238.27 81.3535 238.639 82.6751 239.378 83.6777C240.116 84.6803 241.037 85.1816 242.139 85.1816C243.279 85.1816 244.172 84.7624 244.819 83.9238C245.475 83.0853 245.804 81.987 245.804 80.6289C245.804 79.2617 245.471 78.1589 244.805 77.3203C244.149 76.4727 243.274 76.0488 242.18 76.0488Z" fill="white"/>
</svg>
