<svg style="fill:black;" width="140" height="26" viewBox="0 0 281 46" fill="none" xmlns="http://www.w3.org/2000/svg">
<g clip-path="url(#clip0)">
<path d="M43 28.312C42.12 28.312 41.368 28.184 40.744 27.928C40.136 27.672 39.64 27.312 39.256 26.848C38.872 26.384 38.592 25.816 38.416 25.144C38.24 24.472 38.152 23.72 38.152 22.888V13.144H40.12V22.672C40.12 23.424 40.184 24.056 40.312 24.568C40.456 25.064 40.648 25.464 40.888 25.768C41.144 26.072 41.448 26.288 41.8 26.416C42.152 26.544 42.552 26.608 43 26.608C43.448 26.608 43.848 26.544 44.2 26.416C44.552 26.288 44.848 26.072 45.088 25.768C45.344 25.464 45.536 25.064 45.664 24.568C45.808 24.056 45.88 23.424 45.88 22.672V13.144H47.848V22.888C47.848 23.72 47.76 24.472 47.584 25.144C47.408 25.816 47.128 26.384 46.744 26.848C46.36 27.312 45.856 27.672 45.232 27.928C44.624 28.184 43.88 28.312 43 28.312ZM57.424 25.216C57.424 24.816 57.256 24.488 56.92 24.232C56.6 23.976 56.192 23.752 55.696 23.56C55.216 23.368 54.688 23.184 54.112 23.008C53.536 22.816 53 22.584 52.504 22.312C52.024 22.04 51.616 21.704 51.28 21.304C50.96 20.904 50.8 20.384 50.8 19.744C50.8 18.848 51.16 18.104 51.88 17.512C52.616 16.904 53.76 16.6 55.312 16.6C55.92 16.6 56.544 16.648 57.184 16.744C57.84 16.824 58.4 16.936 58.864 17.08L58.504 18.856C58.376 18.792 58.2 18.728 57.976 18.664C57.752 18.584 57.496 18.52 57.208 18.472C56.92 18.408 56.608 18.36 56.272 18.328C55.952 18.296 55.64 18.28 55.336 18.28C53.608 18.28 52.744 18.752 52.744 19.696C52.744 20.032 52.904 20.32 53.224 20.56C53.56 20.784 53.976 20.992 54.472 21.184C54.968 21.376 55.504 21.576 56.08 21.784C56.656 21.976 57.192 22.216 57.688 22.504C58.184 22.792 58.592 23.144 58.912 23.56C59.248 23.96 59.416 24.472 59.416 25.096C59.416 26.104 59.024 26.888 58.24 27.448C57.456 27.992 56.216 28.264 54.52 28.264C53.752 28.264 53.048 28.2 52.408 28.072C51.768 27.944 51.16 27.752 50.584 27.496L50.968 25.696C51.528 25.952 52.112 26.168 52.72 26.344C53.344 26.504 54.008 26.584 54.712 26.584C56.52 26.584 57.424 26.128 57.424 25.216ZM71.296 27.688C70.864 27.8 70.288 27.92 69.568 28.048C68.864 28.176 68.032 28.24 67.072 28.24C66.224 28.24 65.52 28.12 64.96 27.88C64.4 27.624 63.944 27.272 63.592 26.824C63.24 26.36 62.992 25.816 62.848 25.192C62.704 24.568 62.632 23.88 62.632 23.128V16.864H64.6V22.696C64.6 24.072 64.8 25.048 65.2 25.624C65.616 26.2 66.304 26.488 67.264 26.488C67.472 26.488 67.68 26.48 67.888 26.464C68.112 26.448 68.32 26.432 68.512 26.416C68.704 26.384 68.872 26.36 69.016 26.344C69.16 26.312 69.256 26.288 69.304 26.272V16.864H71.296V27.688ZM74.224 30.088C74.368 30.168 74.568 30.232 74.824 30.28C75.096 30.328 75.344 30.352 75.568 30.352C76.352 30.352 76.96 30.176 77.392 29.824C77.84 29.488 78.248 28.928 78.616 28.144C77.72 26.448 76.88 24.632 76.096 22.696C75.312 20.744 74.664 18.8 74.152 16.864H76.312C76.472 17.504 76.656 18.2 76.864 18.952C77.088 19.688 77.336 20.448 77.608 21.232C77.88 22.016 78.168 22.808 78.472 23.608C78.792 24.392 79.128 25.144 79.48 25.864C79.736 25.128 79.976 24.4 80.2 23.68C80.424 22.96 80.632 22.24 80.824 21.52C81.016 20.784 81.208 20.04 81.4 19.288C81.592 18.52 81.792 17.712 82 16.864H84.064C83.552 18.944 82.976 20.96 82.336 22.912C81.712 24.864 81.04 26.672 80.32 28.336C80.048 28.976 79.752 29.528 79.432 29.992C79.128 30.456 78.792 30.84 78.424 31.144C78.056 31.448 77.64 31.672 77.176 31.816C76.712 31.96 76.184 32.032 75.592 32.032C75.288 32.032 74.952 31.992 74.584 31.912C74.232 31.832 73.992 31.76 73.864 31.696L74.224 30.088ZM95.296 27.688C94.864 27.8 94.288 27.92 93.568 28.048C92.864 28.176 92.032 28.24 91.072 28.24C90.224 28.24 89.52 28.12 88.96 27.88C88.4 27.624 87.944 27.272 87.592 26.824C87.24 26.36 86.992 25.816 86.848 25.192C86.704 24.568 86.632 23.88 86.632 23.128V16.864H88.6V22.696C88.6 24.072 88.8 25.048 89.2 25.624C89.616 26.2 90.304 26.488 91.264 26.488C91.472 26.488 91.68 26.48 91.888 26.464C92.112 26.448 92.32 26.432 92.512 26.416C92.704 26.384 92.872 26.36 93.016 26.344C93.16 26.312 93.256 26.288 93.304 26.272V16.864H95.296V27.688ZM102.712 21.88C103.144 22.2 103.632 22.608 104.176 23.104C104.72 23.584 105.256 24.104 105.784 24.664C106.328 25.224 106.84 25.8 107.32 26.392C107.8 26.968 108.184 27.504 108.472 28H106.12C105.816 27.504 105.44 27 104.992 26.488C104.544 25.96 104.064 25.456 103.552 24.976C103.056 24.496 102.552 24.056 102.04 23.656C101.544 23.256 101.096 22.92 100.696 22.648V28H98.704V11.704L100.696 11.368V21.52C101.576 20.752 102.456 19.992 103.336 19.24C104.216 18.472 105.008 17.68 105.712 16.864H108.04C107.352 17.68 106.52 18.52 105.544 19.384C104.584 20.248 103.64 21.08 102.712 21.88ZM114.016 15.136C113.6 15.136 113.24 14.992 112.936 14.704C112.632 14.416 112.48 14.024 112.48 13.528C112.48 13.032 112.632 12.64 112.936 12.352C113.24 12.064 113.6 11.92 114.016 11.92C114.448 11.92 114.808 12.064 115.096 12.352C115.4 12.64 115.552 13.032 115.552 13.528C115.552 14.024 115.4 14.416 115.096 14.704C114.808 14.992 114.448 15.136 114.016 15.136ZM113.512 18.52H110.296V16.864H115.48V23.704C115.48 24.808 115.632 25.552 115.936 25.936C116.24 26.304 116.696 26.488 117.304 26.488C117.768 26.488 118.192 26.432 118.576 26.32C118.976 26.208 119.288 26.088 119.512 25.96L119.8 27.64C119.704 27.688 119.568 27.752 119.392 27.832C119.216 27.896 119.008 27.96 118.768 28.024C118.544 28.088 118.288 28.144 118 28.192C117.728 28.24 117.44 28.264 117.136 28.264C116.432 28.264 115.848 28.168 115.384 27.976C114.92 27.784 114.544 27.496 114.256 27.112C113.984 26.728 113.792 26.256 113.68 25.696C113.568 25.12 113.512 24.456 113.512 23.704V18.52ZM150.64 13C151.52 13 152.288 13.112 152.944 13.336C153.616 13.56 154.168 13.88 154.6 14.296C155.048 14.696 155.376 15.176 155.584 15.736C155.808 16.296 155.92 16.92 155.92 17.608C155.92 19.16 155.464 20.36 154.552 21.208C153.64 22.04 152.272 22.456 150.448 22.456H148.72V28H146.752V13.36C147.04 13.296 147.352 13.24 147.688 13.192C148.04 13.144 148.384 13.104 148.72 13.072C149.072 13.04 149.408 13.024 149.728 13.024C150.064 13.008 150.368 13 150.64 13ZM150.784 14.704C150.368 14.704 149.968 14.712 149.584 14.728C149.2 14.728 148.912 14.744 148.72 14.776V20.776H150.352C151.552 20.776 152.44 20.536 153.016 20.056C153.608 19.576 153.904 18.784 153.904 17.68C153.904 15.696 152.864 14.704 150.784 14.704ZM168.04 22.432C168.04 23.312 167.912 24.112 167.656 24.832C167.416 25.536 167.072 26.144 166.624 26.656C166.176 27.168 165.64 27.568 165.016 27.856C164.392 28.128 163.712 28.264 162.976 28.264C162.256 28.264 161.584 28.128 160.96 27.856C160.352 27.568 159.824 27.168 159.376 26.656C158.928 26.144 158.576 25.536 158.32 24.832C158.08 24.112 157.96 23.312 157.96 22.432C157.96 21.552 158.08 20.752 158.32 20.032C158.576 19.312 158.928 18.704 159.376 18.208C159.824 17.696 160.352 17.304 160.96 17.032C161.584 16.744 162.256 16.6 162.976 16.6C163.712 16.6 164.392 16.744 165.016 17.032C165.64 17.304 166.176 17.696 166.624 18.208C167.072 18.704 167.416 19.312 167.656 20.032C167.912 20.752 168.04 21.552 168.04 22.432ZM166 22.432C166 21.168 165.728 20.176 165.184 19.456C164.64 18.72 163.904 18.352 162.976 18.352C162.064 18.352 161.336 18.72 160.792 19.456C160.264 20.176 160 21.168 160 22.432C160 23.68 160.264 24.672 160.792 25.408C161.336 26.128 162.064 26.488 162.976 26.488C163.904 26.488 164.64 26.128 165.184 25.408C165.728 24.672 166 23.68 166 22.432ZM171.568 28V17.464C173.2 16.904 174.848 16.624 176.512 16.624C177.024 16.624 177.512 16.648 177.976 16.696C178.44 16.728 178.952 16.808 179.512 16.936L179.152 18.688C178.64 18.544 178.184 18.456 177.784 18.424C177.4 18.376 176.976 18.352 176.512 18.352C175.536 18.352 174.544 18.488 173.536 18.76V28H171.568ZM186.832 16.864H191.536V18.52H186.832V23.704C186.832 24.264 186.872 24.72 186.952 25.072C187.032 25.424 187.16 25.712 187.336 25.936C187.528 26.144 187.768 26.288 188.056 26.368C188.344 26.448 188.696 26.488 189.112 26.488C189.688 26.488 190.152 26.44 190.504 26.344C190.856 26.248 191.192 26.12 191.512 25.96L191.8 27.64C191.576 27.736 191.216 27.864 190.72 28.024C190.24 28.184 189.64 28.264 188.92 28.264C188.088 28.264 187.408 28.168 186.88 27.976C186.352 27.784 185.936 27.496 185.632 27.112C185.344 26.728 185.144 26.256 185.032 25.696C184.92 25.12 184.864 24.456 184.864 23.704V18.52H182.512V16.864H184.864V13.744L186.832 13.408V16.864ZM196.864 28V18.52H194.512V16.864H196.864V15.856C196.864 14.992 196.984 14.28 197.224 13.72C197.464 13.144 197.776 12.68 198.16 12.328C198.56 11.976 199.016 11.728 199.528 11.584C200.056 11.44 200.608 11.368 201.184 11.368C201.76 11.368 202.336 11.432 202.912 11.56C203.504 11.688 204.056 11.84 204.568 12.016L204.208 13.72C203.856 13.544 203.416 13.392 202.888 13.264C202.36 13.136 201.824 13.072 201.28 13.072C200.944 13.072 200.624 13.12 200.32 13.216C200.032 13.296 199.776 13.448 199.552 13.672C199.328 13.88 199.152 14.168 199.024 14.536C198.896 14.888 198.832 15.336 198.832 15.88V16.864H203.32V18.52H198.832V28H196.864ZM216.04 22.432C216.04 23.312 215.912 24.112 215.656 24.832C215.416 25.536 215.072 26.144 214.624 26.656C214.176 27.168 213.64 27.568 213.016 27.856C212.392 28.128 211.712 28.264 210.976 28.264C210.256 28.264 209.584 28.128 208.96 27.856C208.352 27.568 207.824 27.168 207.376 26.656C206.928 26.144 206.576 25.536 206.32 24.832C206.08 24.112 205.96 23.312 205.96 22.432C205.96 21.552 206.08 20.752 206.32 20.032C206.576 19.312 206.928 18.704 207.376 18.208C207.824 17.696 208.352 17.304 208.96 17.032C209.584 16.744 210.256 16.6 210.976 16.6C211.712 16.6 212.392 16.744 213.016 17.032C213.64 17.304 214.176 17.696 214.624 18.208C215.072 18.704 215.416 19.312 215.656 20.032C215.912 20.752 216.04 21.552 216.04 22.432ZM214 22.432C214 21.168 213.728 20.176 213.184 19.456C212.64 18.72 211.904 18.352 210.976 18.352C210.064 18.352 209.336 18.72 208.792 19.456C208.264 20.176 208 21.168 208 22.432C208 23.68 208.264 24.672 208.792 25.408C209.336 26.128 210.064 26.488 210.976 26.488C211.904 26.488 212.64 26.128 213.184 25.408C213.728 24.672 214 23.68 214 22.432ZM225.112 28.264C224.408 28.264 223.824 28.168 223.36 27.976C222.896 27.784 222.528 27.496 222.256 27.112C221.984 26.728 221.792 26.256 221.68 25.696C221.568 25.12 221.512 24.456 221.512 23.704V13.168H218.296V11.488H223.48V23.704C223.48 24.264 223.512 24.72 223.576 25.072C223.656 25.424 223.768 25.712 223.912 25.936C224.072 26.144 224.264 26.288 224.488 26.368C224.712 26.448 224.976 26.488 225.28 26.488C225.744 26.488 226.176 26.432 226.576 26.32C226.976 26.208 227.288 26.088 227.512 25.96L227.8 27.64C227.704 27.688 227.568 27.752 227.392 27.832C227.216 27.896 227.008 27.96 226.768 28.024C226.528 28.088 226.264 28.144 225.976 28.192C225.704 28.24 225.416 28.264 225.112 28.264ZM234.016 15.136C233.6 15.136 233.24 14.992 232.936 14.704C232.632 14.416 232.48 14.024 232.48 13.528C232.48 13.032 232.632 12.64 232.936 12.352C233.24 12.064 233.6 11.92 234.016 11.92C234.448 11.92 234.808 12.064 235.096 12.352C235.4 12.64 235.552 13.032 235.552 13.528C235.552 14.024 235.4 14.416 235.096 14.704C234.808 14.992 234.448 15.136 234.016 15.136ZM233.512 18.52H230.296V16.864H235.48V23.704C235.48 24.808 235.632 25.552 235.936 25.936C236.24 26.304 236.696 26.488 237.304 26.488C237.768 26.488 238.192 26.432 238.576 26.32C238.976 26.208 239.288 26.088 239.512 25.96L239.8 27.64C239.704 27.688 239.568 27.752 239.392 27.832C239.216 27.896 239.008 27.96 238.768 28.024C238.544 28.088 238.288 28.144 238 28.192C237.728 28.24 237.44 28.264 237.136 28.264C236.432 28.264 235.848 28.168 235.384 27.976C234.92 27.784 234.544 27.496 234.256 27.112C233.984 26.728 233.792 26.256 233.68 25.696C233.568 25.12 233.512 24.456 233.512 23.704V18.52ZM252.04 22.432C252.04 23.312 251.912 24.112 251.656 24.832C251.416 25.536 251.072 26.144 250.624 26.656C250.176 27.168 249.64 27.568 249.016 27.856C248.392 28.128 247.712 28.264 246.976 28.264C246.256 28.264 245.584 28.128 244.96 27.856C244.352 27.568 243.824 27.168 243.376 26.656C242.928 26.144 242.576 25.536 242.32 24.832C242.08 24.112 241.96 23.312 241.96 22.432C241.96 21.552 242.08 20.752 242.32 20.032C242.576 19.312 242.928 18.704 243.376 18.208C243.824 17.696 244.352 17.304 244.96 17.032C245.584 16.744 246.256 16.6 246.976 16.6C247.712 16.6 248.392 16.744 249.016 17.032C249.64 17.304 250.176 17.696 250.624 18.208C251.072 18.704 251.416 19.312 251.656 20.032C251.912 20.752 252.04 21.552 252.04 22.432ZM250 22.432C250 21.168 249.728 20.176 249.184 19.456C248.64 18.72 247.904 18.352 246.976 18.352C246.064 18.352 245.336 18.72 244.792 19.456C244.264 20.176 244 21.168 244 22.432C244 23.68 244.264 24.672 244.792 25.408C245.336 26.128 246.064 26.488 246.976 26.488C247.904 26.488 248.64 26.128 249.184 25.408C249.728 24.672 250 23.68 250 22.432Z" fill="black"/>
<path d="M127.05 16.05C124.32 18.78 124.32 23.2 127.03 25.93C128.5 22.53 131.12 19.69 134.39 18C131.62 20.34 129.68 23.61 129 27.32C131.6 28.55 134.8 28.1 136.95 25.95C140.43 22.47 141 12 141 12C141 12 130.53 12.57 127.05 16.05Z" fill="black"/>
</g>
<defs>
<clipPath id="clip0">
<rect width="281" height="46" fill="white"/>
</clipPath>
</defs>
</svg>
